<?xml version="1.0" encoding="UTF-8" standalone="no"?>
<svg
   version="1.1"
   viewBox="0 0 1989 430.31099"
   width="1989"
   height="430.311"
   class="excalidraw-svg"
   id="svg398"
   sodipodi:docname="bicha-balazote-color-title.svg"
   inkscape:export-filename="bicha-balazote-color-title-96dpi.png"
   inkscape:export-xdpi="96"
   inkscape:export-ydpi="96"
   inkscape:version="1.2.2 (b0a8486541, 2022-12-01)"
   xmlns:inkscape="http://www.inkscape.org/namespaces/inkscape"
   xmlns:sodipodi="http://sodipodi.sourceforge.net/DTD/sodipodi-0.dtd"
   xmlns="http://www.w3.org/2000/svg"
   xmlns:svg="http://www.w3.org/2000/svg">
  <sodipodi:namedview
     id="namedview400"
     pagecolor="#ffffff"
     bordercolor="#000000"
     borderopacity="0.25"
     inkscape:showpageshadow="2"
     inkscape:pageopacity="0.0"
     inkscape:pagecheckerboard="0"
     inkscape:deskcolor="#d1d1d1"
     showgrid="false"
     showguides="true"
     inkscape:zoom="0.75362445"
     inkscape:cx="755.01796"
     inkscape:cy="317.13408"
     inkscape:window-width="1920"
     inkscape:window-height="1011"
     inkscape:window-x="0"
     inkscape:window-y="0"
     inkscape:window-maximized="1"
     inkscape:current-layer="svg398">
    <sodipodi:guide
       position="-33.940147,245.84827"
       orientation="0,-1"
       id="guide2536"
       inkscape:locked="false" />
    <sodipodi:guide
       position="112.82974,29.674208"
       orientation="0,-1"
       id="guide2538"
       inkscape:locked="false" />
    <sodipodi:guide
       position="587.82594,330.79193"
       orientation="1,0"
       id="guide2841"
       inkscape:locked="false" />
    <sodipodi:guide
       position="788.19098,432.96483"
       orientation="1,0"
       id="guide2843"
       inkscape:locked="false" />
    <sodipodi:guide
       position="1945.266,164.92683"
       orientation="1,0"
       id="guide2845"
       inkscape:locked="false" />
    <sodipodi:guide
       position="1744.9009,60.100086"
       orientation="1,0"
       id="guide2847"
       inkscape:locked="false" />
  </sodipodi:namedview>
  <!-- svg-source:excalidraw -->
  <defs
     id="defs4">
    <rect
       x="615.13147"
       y="54.50742"
       width="758.44928"
       height="315.64648"
       id="rect2326" />
    <style
       class="style-fonts"
       id="style2">
      @font-face {
        font-family: &quot;Virgil&quot;;
        src: url(&quot;https://excalidraw.com/Virgil.woff2&quot;);
      }
      @font-face {
        font-family: &quot;Cascadia&quot;;
        src: url(&quot;https://excalidraw.com/Cascadia.woff2&quot;);
      }
      @font-face {
        font-family: &quot;Assistant&quot;;
        src: url(&quot;https://excalidraw.com/Assistant-Regular.woff2&quot;);
      }
    </style>
  </defs>
  <g
     stroke-linecap="round"
     id="g12"
     transform="translate(40,8)">
    <g
       transform="translate(148.88193,84.869762)"
       fill-rule="evenodd"
       id="g10">
      <path
         d="M 0,0 C 1.03,3.91 4.22,13.4 6.21,23.49 8.2,33.58 8,48.17 11.95,60.57 c 3.94,12.39 6.04,30.35 17.93,37.29 11.89,6.95 36.87,4.97 53.4,4.38 16.54,-0.58 33.88,-4.53 45.82,-7.89 11.93,-3.35 18.72,-9.4 25.79,-12.26 7.08,-2.85 7.11,-4.44 16.67,-4.86 9.55,-0.42 30.85,0.98 40.68,2.36 9.82,1.37 9.13,4.03 18.27,5.89 9.14,1.87 24.53,0.81 36.55,5.31 12.03,4.5 28.93,13.61 35.6,21.67 6.66,8.06 2.23,19.76 4.4,26.7 2.17,6.94 6.05,9.82 8.62,14.92 2.57,5.11 4.46,9.07 6.8,15.71 2.34,6.63 4.98,18 7.26,24.11 2.28,6.1 4.49,7.94 6.4,12.55 1.91,4.6 2.71,8.37 5.05,15.08 2.34,6.7 7.95,17.42 8.97,25.15 1.02,7.73 -1.78,15.86 -2.85,21.22 -1.08,5.36 -3.4,5.79 -3.61,10.95 -0.2,5.17 4.79,14.68 2.36,20.05 -2.43,5.37 -0.99,9.57 -16.94,12.2 -15.94,2.62 -35.36,2.74 -78.72,3.56 -43.36,0.82 -133.55,1.9 -181.42,1.34 -47.87,-0.57 -80.11,-3.75 -105.79,-4.75 -25.69,-0.99 -34.27,-0.96 -48.34,-1.24 -14.07,-0.28 -28.35,3.83 -36.1,-0.43 -7.74,-4.26 -7.65,-15.64 -10.38,-25.14 -2.72,-9.49 -6.5,-23.75 -5.98,-31.84 0.51,-8.08 3.81,-10.89 9.06,-16.66 5.25,-5.78 18,-12.46 22.43,-17.99 4.44,-5.54 2.01,-10.5 4.19,-15.21 2.19,-4.72 8.07,-5.83 8.94,-13.09 0.87,-7.26 -2.69,-20.38 -3.7,-30.47 -1,-10.09 -0.79,-21.8 -2.35,-30.07 -1.57,-8.27 -4.69,-13.09 -7.05,-19.57 -2.36,-6.49 -5.96,-12.65 -7.1,-19.34 -1.14,-6.69 0.27,-14.43 0.27,-20.82 0,-6.38 -0.82,-9.84 -0.27,-17.5 0.55,-7.66 3.86,-22.12 3.57,-28.44 -0.29,-6.32 -4.65,-5.23 -5.31,-9.48 -0.66,-4.25 2.2,-11.69 1.36,-16.02 -0.84,-4.32 -6.33,-6 -6.38,-9.91 -0.06,-3.92 4.8,-9.45 6.04,-13.59 1.23,-4.14 0.14,-6.7 1.36,-11.25 1.22,-4.54 1.69,-10.93 5.95,-16.04 4.25,-5.11 12.15,-11.93 19.6,-14.62 7.45,-2.69 14.76,-1.39 25.1,-1.51 10.33,-0.11 27.99,-0.16 36.91,0.83 8.92,0.99 14.51,0.72 16.61,5.1 2.1,4.37 -4.99,14.15 -4.01,21.13 0.98,6.99 7.82,13.8 9.88,20.79 C -0.44,-14.15 -0.42,-3.52 0,0"
         stroke="none"
         stroke-width="0"
         fill="#ffffff"
         fill-rule="evenodd"
         id="path6" />
      <path
         d="M 0,0 C 1.03,3.91 4.22,13.4 6.21,23.49 8.2,33.58 8,48.17 11.95,60.57 c 3.94,12.39 6.04,30.35 17.93,37.29 11.89,6.95 36.87,4.97 53.4,4.38 16.54,-0.58 33.88,-4.53 45.82,-7.89 11.93,-3.35 18.72,-9.4 25.79,-12.26 7.08,-2.85 7.11,-4.44 16.67,-4.86 9.55,-0.42 30.85,0.98 40.68,2.36 9.82,1.37 9.13,4.03 18.27,5.89 9.14,1.87 24.53,0.81 36.55,5.31 12.03,4.5 28.93,13.61 35.6,21.67 6.66,8.06 2.23,19.76 4.4,26.7 2.17,6.94 6.05,9.82 8.62,14.92 2.57,5.11 4.46,9.07 6.8,15.71 2.34,6.63 4.98,18 7.26,24.11 2.28,6.1 4.49,7.94 6.4,12.55 1.91,4.6 2.71,8.37 5.05,15.08 2.34,6.7 7.95,17.42 8.97,25.15 1.02,7.73 -1.78,15.86 -2.85,21.22 -1.08,5.36 -3.4,5.79 -3.61,10.95 -0.2,5.17 4.79,14.68 2.36,20.05 -2.43,5.37 -0.99,9.57 -16.94,12.2 -15.94,2.62 -35.36,2.74 -78.72,3.56 -43.36,0.82 -133.55,1.9 -181.42,1.34 -47.87,-0.57 -80.11,-3.75 -105.79,-4.75 -25.69,-0.99 -34.27,-0.96 -48.34,-1.24 -14.07,-0.28 -28.35,3.83 -36.1,-0.43 -7.74,-4.26 -7.65,-15.64 -10.38,-25.14 -2.72,-9.49 -6.5,-23.75 -5.98,-31.84 0.51,-8.08 3.81,-10.89 9.06,-16.66 5.25,-5.78 18,-12.46 22.43,-17.99 4.44,-5.54 2.01,-10.5 4.19,-15.21 2.19,-4.72 8.07,-5.83 8.94,-13.09 0.87,-7.26 -2.69,-20.38 -3.7,-30.47 -1,-10.09 -0.79,-21.8 -2.35,-30.07 -1.57,-8.27 -4.69,-13.09 -7.05,-19.57 -2.36,-6.49 -5.96,-12.65 -7.1,-19.34 -1.14,-6.69 0.27,-14.43 0.27,-20.82 0,-6.38 -0.82,-9.84 -0.27,-17.5 0.55,-7.66 3.86,-22.12 3.57,-28.44 -0.29,-6.32 -4.65,-5.23 -5.31,-9.48 -0.66,-4.25 2.2,-11.69 1.36,-16.02 -0.84,-4.32 -6.33,-6 -6.38,-9.91 -0.06,-3.92 4.8,-9.45 6.04,-13.59 1.23,-4.14 0.14,-6.7 1.36,-11.25 1.22,-4.54 1.69,-10.93 5.95,-16.04 4.25,-5.11 12.15,-11.93 19.6,-14.62 7.45,-2.69 14.76,-1.39 25.1,-1.51 10.33,-0.11 27.99,-0.16 36.91,0.83 8.92,0.99 14.51,0.72 16.61,5.1 2.1,4.37 -4.99,14.15 -4.01,21.13 0.98,6.99 7.82,13.8 9.88,20.79 C -0.44,-14.15 -0.42,-3.52 0,0 M 0,0 C 1.03,3.91 4.22,13.4 6.21,23.49 8.2,33.58 8,48.17 11.95,60.57 c 3.94,12.39 6.04,30.35 17.93,37.29 11.89,6.95 36.87,4.97 53.4,4.38 16.54,-0.58 33.88,-4.53 45.82,-7.89 11.93,-3.35 18.72,-9.4 25.79,-12.26 7.08,-2.85 7.11,-4.44 16.67,-4.86 9.55,-0.42 30.85,0.98 40.68,2.36 9.82,1.37 9.13,4.03 18.27,5.89 9.14,1.87 24.53,0.81 36.55,5.31 12.03,4.5 28.93,13.61 35.6,21.67 6.66,8.06 2.23,19.76 4.4,26.7 2.17,6.94 6.05,9.82 8.62,14.92 2.57,5.11 4.46,9.07 6.8,15.71 2.34,6.63 4.98,18 7.26,24.11 2.28,6.1 4.49,7.94 6.4,12.55 1.91,4.6 2.71,8.37 5.05,15.08 2.34,6.7 7.95,17.42 8.97,25.15 1.02,7.73 -1.78,15.86 -2.85,21.22 -1.08,5.36 -3.4,5.79 -3.61,10.95 -0.2,5.17 4.79,14.68 2.36,20.05 -2.43,5.37 -0.99,9.57 -16.94,12.2 -15.94,2.62 -35.36,2.74 -78.72,3.56 -43.36,0.82 -133.55,1.9 -181.42,1.34 -47.87,-0.57 -80.11,-3.75 -105.79,-4.75 -25.69,-0.99 -34.27,-0.96 -48.34,-1.24 -14.07,-0.28 -28.35,3.83 -36.1,-0.43 -7.74,-4.26 -7.65,-15.64 -10.38,-25.14 -2.72,-9.49 -6.5,-23.75 -5.98,-31.84 0.51,-8.08 3.81,-10.89 9.06,-16.66 5.25,-5.78 18,-12.46 22.43,-17.99 4.44,-5.54 2.01,-10.5 4.19,-15.21 2.19,-4.72 8.07,-5.83 8.94,-13.09 0.87,-7.26 -2.69,-20.38 -3.7,-30.47 -1,-10.09 -0.79,-21.8 -2.35,-30.07 -1.57,-8.27 -4.69,-13.09 -7.05,-19.57 -2.36,-6.49 -5.96,-12.65 -7.1,-19.34 -1.14,-6.69 0.27,-14.43 0.27,-20.82 0,-6.38 -0.82,-9.84 -0.27,-17.5 0.55,-7.66 3.86,-22.12 3.57,-28.44 -0.29,-6.32 -4.65,-5.23 -5.31,-9.48 -0.66,-4.25 2.2,-11.69 1.36,-16.02 -0.84,-4.32 -6.33,-6 -6.38,-9.91 -0.06,-3.92 4.8,-9.45 6.04,-13.59 1.23,-4.14 0.14,-6.7 1.36,-11.25 1.22,-4.54 1.69,-10.93 5.95,-16.04 4.25,-5.11 12.15,-11.93 19.6,-14.62 7.45,-2.69 14.76,-1.39 25.1,-1.51 10.33,-0.11 27.99,-0.16 36.91,0.83 8.92,0.99 14.51,0.72 16.61,5.1 2.1,4.37 -4.99,14.15 -4.01,21.13 0.98,6.99 7.82,13.8 9.88,20.79 C -0.44,-14.15 -0.42,-3.52 0,0"
         stroke="#ffffff"
         stroke-width="2"
         fill="none"
         id="path8" />
    </g>
  </g>
  <mask
     id="mask14" />
  <g
     stroke-linecap="round"
     id="g22"
     transform="translate(40,8)">
    <g
       transform="translate(66.584275,45.18886)"
       fill-rule="evenodd"
       id="g20">
      <path
         d="m 0,0 c 1.01,0.94 3.17,4.55 6.04,5.62 2.87,1.07 7.98,1.22 11.18,0.8 3.19,-0.43 7.23,-1.33 8,-3.34 0.77,-2.01 -1.38,-6.74 -3.4,-8.72 C 19.8,-7.61 16.23,-8.75 13.13,-8.77 10.02,-8.8 5.38,-7.27 3.19,-5.81 1,-4.35 0.53,-0.97 0,0"
         stroke="none"
         stroke-width="0"
         fill="#ffffff"
         fill-rule="evenodd"
         id="path16" />
      <path
         d="m 0,0 c 1.01,0.94 3.17,4.55 6.04,5.62 2.87,1.07 7.98,1.22 11.18,0.8 3.19,-0.43 7.23,-1.33 8,-3.34 0.77,-2.01 -1.38,-6.74 -3.4,-8.72 C 19.8,-7.61 16.23,-8.75 13.13,-8.77 10.02,-8.8 5.38,-7.27 3.19,-5.81 1,-4.35 0.53,-0.97 0,0 m 0,0 c 1.01,0.94 3.17,4.55 6.04,5.62 2.87,1.07 7.98,1.22 11.18,0.8 3.19,-0.43 7.23,-1.33 8,-3.34 0.77,-2.01 -1.38,-6.74 -3.4,-8.72 C 19.8,-7.61 16.23,-8.75 13.13,-8.77 10.02,-8.8 5.38,-7.27 3.19,-5.81 1,-4.35 0.53,-0.97 0,0"
         stroke="#1e1e1e"
         stroke-width="0.5"
         fill="none"
         id="path18" />
    </g>
  </g>
  <mask
     id="mask24" />
  <g
     stroke-linecap="round"
     id="g32"
     transform="translate(40,8)">
    <g
       transform="translate(36.601012,48.209936)"
       fill-rule="evenodd"
       id="g30">
      <path
         d="m 0,0 c 0.52,0.99 0.97,5.33 3.1,5.95 2.14,0.62 7.47,-0.75 9.7,-2.23 2.22,-1.49 3.73,-4.39 3.64,-6.66 -0.1,-2.27 -1.9,-6.25 -4.19,-6.98 C 9.97,-10.65 4.76,-8.98 2.72,-7.33 0.68,-5.67 0.45,-1.22 0,0"
         stroke="none"
         stroke-width="0"
         fill="#ffffff"
         fill-rule="evenodd"
         id="path26" />
      <path
         d="m 0,0 c 0.52,0.99 0.97,5.33 3.1,5.95 2.14,0.62 7.47,-0.75 9.7,-2.23 2.22,-1.49 3.73,-4.39 3.64,-6.66 -0.1,-2.27 -1.9,-6.25 -4.19,-6.98 C 9.97,-10.65 4.76,-8.98 2.72,-7.33 0.68,-5.67 0.45,-1.22 0,0 m 0,0 c 0.52,0.99 0.97,5.33 3.1,5.95 2.14,0.62 7.47,-0.75 9.7,-2.23 2.22,-1.49 3.73,-4.39 3.64,-6.66 -0.1,-2.27 -1.9,-6.25 -4.19,-6.98 C 9.97,-10.65 4.76,-8.98 2.72,-7.33 0.68,-5.67 0.45,-1.22 0,0"
         stroke="#1e1e1e"
         stroke-width="0.5"
         fill="none"
         id="path28" />
    </g>
  </g>
  <mask
     id="mask34" />
  <g
     stroke-linecap="round"
     id="g42"
     transform="translate(40,8)">
    <g
       transform="translate(49.968411,81.946921)"
       fill-rule="evenodd"
       id="g40">
      <path
         d="M 0,0 C 1.14,-0.37 6.66,-1.1 6.85,-2.23 7.04,-3.36 3.71,-6.34 1.16,-6.76 -1.4,-7.18 -8.28,-5.86 -8.48,-4.73 -8.67,-3.6 -1.41,-0.79 0,0"
         stroke="none"
         stroke-width="0"
         fill="#1e1e1e"
         fill-rule="evenodd"
         id="path36" />
      <path
         d="M 0,0 C 1.14,-0.37 6.66,-1.1 6.85,-2.23 7.04,-3.36 3.71,-6.34 1.16,-6.76 -1.4,-7.18 -8.28,-5.86 -8.48,-4.73 -8.67,-3.6 -1.41,-0.79 0,0 M 0,0 C 1.14,-0.37 6.66,-1.1 6.85,-2.23 7.04,-3.36 3.71,-6.34 1.16,-6.76 -1.4,-7.18 -8.28,-5.86 -8.48,-4.73 -8.67,-3.6 -1.41,-0.79 0,0"
         stroke="#1e1e1e"
         stroke-width="0.5"
         fill="none"
         id="path38" />
    </g>
  </g>
  <mask
     id="mask44" />
  <g
     stroke-linecap="round"
     id="g52"
     transform="translate(40,8)">
    <g
       transform="translate(326.62012,332.01924)"
       fill-rule="evenodd"
       id="g50">
      <path
         d="m 0,0 c -2.01,0.25 -6.97,-0.5 -12.09,1.51 -5.11,2.01 -13.64,6.47 -18.61,10.55 -4.97,4.09 -9.38,9.6 -11.2,13.94 -1.81,4.35 -1.71,8.8 0.33,12.12 2.03,3.31 6.67,6.09 11.88,7.76 5.22,1.66 13.68,2.26 19.41,2.22 C -4.55,48.06 0.49,46.65 4.7,45.63 8.9,44.61 13.91,45.22 14.93,41.97 15.95,38.73 13.31,33.15 10.83,26.15 8.34,19.16 1.8,4.36 0,0"
         stroke="none"
         stroke-width="0"
         fill="#d2bab0"
         fill-rule="evenodd"
         id="path46" />
      <path
         d="m 0,0 c -2.01,0.25 -6.97,-0.5 -12.09,1.51 -5.11,2.01 -13.64,6.47 -18.61,10.55 -4.97,4.09 -9.38,9.6 -11.2,13.94 -1.81,4.35 -1.71,8.8 0.33,12.12 2.03,3.31 6.67,6.09 11.88,7.76 5.22,1.66 13.68,2.26 19.41,2.22 C -4.55,48.06 0.49,46.65 4.7,45.63 8.9,44.61 13.91,45.22 14.93,41.97 15.95,38.73 13.31,33.15 10.83,26.15 8.34,19.16 1.8,4.36 0,0 m 0,0 c -2.01,0.25 -6.97,-0.5 -12.09,1.51 -5.11,2.01 -13.64,6.47 -18.61,10.55 -4.97,4.09 -9.38,9.6 -11.2,13.94 -1.81,4.35 -1.71,8.8 0.33,12.12 2.03,3.31 6.67,6.09 11.88,7.76 5.22,1.66 13.68,2.26 19.41,2.22 C -4.55,48.06 0.49,46.65 4.7,45.63 8.9,44.61 13.91,45.22 14.93,41.97 15.95,38.73 13.31,33.15 10.83,26.15 8.34,19.16 1.8,4.36 0,0"
         stroke="transparent"
         stroke-width="0.5"
         fill="none"
         id="path48" />
    </g>
  </g>
  <mask
     id="mask54" />
  <g
     stroke-linecap="round"
     id="g62"
     transform="translate(40,8)">
    <g
       transform="translate(122.00097,332.19793)"
       fill-rule="evenodd"
       id="g60">
      <path
         d="m 0,0 c 0.92,2.85 3.32,11.23 5.53,17.11 2.2,5.88 3.85,16.43 7.7,18.16 C 17.08,37 23.57,32 28.61,27.5 33.65,23.01 40.59,14.55 43.46,8.32 46.34,2.09 45.58,-4.4 45.87,-9.86 c 0.29,-5.46 1.56,-12.41 -0.66,-14.58 -2.22,-2.17 -7.79,-0.17 -12.67,1.56 -4.89,1.72 -11.87,6.03 -16.62,8.79 -4.75,2.75 -9.89,6.45 -11.87,7.74"
         stroke="none"
         stroke-width="0"
         fill="#d2bab0"
         fill-rule="evenodd"
         id="path56" />
      <path
         d="m 0,0 c 0.92,2.85 3.32,11.23 5.53,17.11 2.2,5.88 3.85,16.43 7.7,18.16 C 17.08,37 23.57,32 28.61,27.5 33.65,23.01 40.59,14.55 43.46,8.32 46.34,2.09 45.58,-4.4 45.87,-9.86 c 0.29,-5.46 1.56,-12.41 -0.66,-14.58 -2.22,-2.17 -7.79,-0.17 -12.67,1.56 -4.89,1.72 -11.87,6.03 -16.62,8.79 -4.75,2.75 -9.89,6.45 -11.87,7.74 M 0,0 c 0.92,2.85 3.32,11.23 5.53,17.11 2.2,5.88 3.85,16.43 7.7,18.16 C 17.08,37 23.57,32 28.61,27.5 33.65,23.01 40.59,14.55 43.46,8.32 46.34,2.09 45.58,-4.4 45.87,-9.86 c 0.29,-5.46 1.56,-12.41 -0.66,-14.58 -2.22,-2.17 -7.79,-0.17 -12.67,1.56 -4.89,1.72 -11.87,6.03 -16.62,8.79 -4.75,2.75 -9.89,6.45 -11.87,7.74"
         stroke="#1e1e1e"
         stroke-width="0.5"
         fill="none"
         id="path58" />
    </g>
  </g>
  <mask
     id="mask64" />
  <g
     stroke-linecap="round"
     id="g72"
     transform="translate(40,8)">
    <g
       transform="translate(386.0525,206.39566)"
       fill-rule="evenodd"
       id="g70">
      <path
         d="m 0,0 c -0.65,2.29 -2.57,8.21 -3.91,13.72 -1.33,5.51 -2.46,13.03 -4.1,19.35 -1.64,6.33 -4.16,12.92 -5.75,18.6 -1.58,5.67 -3.14,11.5 -3.75,15.44 -0.62,3.95 -1.1,6.12 0.05,8.22 1.16,2.1 3.77,4.31 6.85,4.4 3.09,0.1 8.17,-1.47 11.67,-3.83 3.51,-2.36 6.84,-6.54 9.38,-10.32 2.53,-3.78 3.61,-8.54 5.82,-12.36 2.21,-3.81 4.9,-7.4 7.46,-10.53 2.56,-3.13 5.69,-5.56 7.91,-8.25 2.22,-2.7 3.89,-4.5 5.41,-7.91 1.52,-3.42 3.07,-8.61 3.72,-12.6 0.64,-4 1.95,-7.04 0.17,-11.37 -1.79,-4.33 -7.05,-11.25 -10.89,-14.63 -3.85,-3.38 -8.02,-5.42 -12.19,-5.63 -4.16,-0.22 -9.81,1.39 -12.78,4.34 C 2.09,-10.41 0.84,-2.23 0,0"
         stroke="none"
         stroke-width="0"
         fill="#d2bab0"
         fill-rule="evenodd"
         id="path66" />
      <path
         d="m 0,0 c -0.65,2.29 -2.57,8.21 -3.91,13.72 -1.33,5.51 -2.46,13.03 -4.1,19.35 -1.64,6.33 -4.16,12.92 -5.75,18.6 -1.58,5.67 -3.14,11.5 -3.75,15.44 -0.62,3.95 -1.1,6.12 0.05,8.22 1.16,2.1 3.77,4.31 6.85,4.4 3.09,0.1 8.17,-1.47 11.67,-3.83 3.51,-2.36 6.84,-6.54 9.38,-10.32 2.53,-3.78 3.61,-8.54 5.82,-12.36 2.21,-3.81 4.9,-7.4 7.46,-10.53 2.56,-3.13 5.69,-5.56 7.91,-8.25 2.22,-2.7 3.89,-4.5 5.41,-7.91 1.52,-3.42 3.07,-8.61 3.72,-12.6 0.64,-4 1.95,-7.04 0.17,-11.37 -1.79,-4.33 -7.05,-11.25 -10.89,-14.63 -3.85,-3.38 -8.02,-5.42 -12.19,-5.63 -4.16,-0.22 -9.81,1.39 -12.78,4.34 C 2.09,-10.41 0.84,-2.23 0,0 m 0,0 c -0.65,2.29 -2.57,8.21 -3.91,13.72 -1.33,5.51 -2.46,13.03 -4.1,19.35 -1.64,6.33 -4.16,12.92 -5.75,18.6 -1.58,5.67 -3.14,11.5 -3.75,15.44 -0.62,3.95 -1.1,6.12 0.05,8.22 1.16,2.1 3.77,4.31 6.85,4.4 3.09,0.1 8.17,-1.47 11.67,-3.83 3.51,-2.36 6.84,-6.54 9.38,-10.32 2.53,-3.78 3.61,-8.54 5.82,-12.36 2.21,-3.81 4.9,-7.4 7.46,-10.53 2.56,-3.13 5.69,-5.56 7.91,-8.25 2.22,-2.7 3.89,-4.5 5.41,-7.91 1.52,-3.42 3.07,-8.61 3.72,-12.6 0.64,-4 1.95,-7.04 0.17,-11.37 -1.79,-4.33 -7.05,-11.25 -10.89,-14.63 -3.85,-3.38 -8.02,-5.42 -12.19,-5.63 -4.16,-0.22 -9.81,1.39 -12.78,4.34 C 2.09,-10.41 0.84,-2.23 0,0"
         stroke="#1e1e1e"
         stroke-width="0.5"
         fill="none"
         id="path68" />
    </g>
  </g>
  <mask
     id="mask74" />
  <g
     stroke-linecap="round"
     id="g82"
     transform="translate(40,8)">
    <g
       transform="translate(53.554917,190.22743)"
       fill-rule="evenodd"
       id="g80">
      <path
         d="m 0,0 c 6.21,-3.78 26.8,-14.24 37.24,-22.65 10.44,-8.41 17.21,-14.46 25.4,-27.81 8.19,-13.35 18,-40.09 23.74,-52.29 5.74,-12.2 8.67,-13.6 10.68,-20.9 2.01,-7.29 3.05,-18.31 1.38,-22.86 -1.66,-4.55 -9.45,-2.17 -11.39,-4.45 -1.95,-2.28 0.29,-5.26 -0.25,-9.23 -0.55,-3.96 0.35,-11.97 -3.01,-14.55 -3.36,-2.58 -8.16,-0.02 -17.16,-0.92 -9,-0.91 -26.44,-5.19 -36.85,-4.49 -10.41,0.7 -20.13,6.52 -25.6,8.69 -5.48,2.16 -8.95,4.4 -7.25,4.3 1.71,-0.1 10.56,-5.22 17.48,-4.9 6.91,0.32 16.8,2.9 24,6.81 7.2,3.92 16.84,8.95 19.22,16.66 2.38,7.71 -0.61,21.07 -4.92,29.57 -4.32,8.51 -14.95,17.52 -20.96,21.48 -6.01,3.96 -10.29,4.3 -15.12,2.28 -4.84,-2.01 -9.52,-12.55 -13.89,-14.36 -4.37,-1.81 -8.8,0.77 -12.34,3.51 -3.54,2.75 -7.83,8.82 -8.9,12.97 -1.08,4.15 2.48,3.87 2.43,11.93 -0.06,8.05 -2.2,25.92 -2.76,36.4 -0.57,10.47 -1.86,18.42 -0.65,26.44 1.21,8.02 4.66,18.59 7.91,21.65 C -8.32,6.35 -1.93,0.55 0,0"
         stroke="none"
         stroke-width="0"
         fill="#d2bab0"
         fill-rule="evenodd"
         id="path76" />
      <path
         d="m 0,0 c 6.21,-3.78 26.8,-14.24 37.24,-22.65 10.44,-8.41 17.21,-14.46 25.4,-27.81 8.19,-13.35 18,-40.09 23.74,-52.29 5.74,-12.2 8.67,-13.6 10.68,-20.9 2.01,-7.29 3.05,-18.31 1.38,-22.86 -1.66,-4.55 -9.45,-2.17 -11.39,-4.45 -1.95,-2.28 0.29,-5.26 -0.25,-9.23 -0.55,-3.96 0.35,-11.97 -3.01,-14.55 -3.36,-2.58 -8.16,-0.02 -17.16,-0.92 -9,-0.91 -26.44,-5.19 -36.85,-4.49 -10.41,0.7 -20.13,6.52 -25.6,8.69 -5.48,2.16 -8.95,4.4 -7.25,4.3 1.71,-0.1 10.56,-5.22 17.48,-4.9 6.91,0.32 16.8,2.9 24,6.81 7.2,3.92 16.84,8.95 19.22,16.66 2.38,7.71 -0.61,21.07 -4.92,29.57 -4.32,8.51 -14.95,17.52 -20.96,21.48 -6.01,3.96 -10.29,4.3 -15.12,2.28 -4.84,-2.01 -9.52,-12.55 -13.89,-14.36 -4.37,-1.81 -8.8,0.77 -12.34,3.51 -3.54,2.75 -7.83,8.82 -8.9,12.97 -1.08,4.15 2.48,3.87 2.43,11.93 -0.06,8.05 -2.2,25.92 -2.76,36.4 -0.57,10.47 -1.86,18.42 -0.65,26.44 1.21,8.02 4.66,18.59 7.91,21.65 C -8.32,6.35 -1.93,0.55 0,0 m 0,0 c 6.21,-3.78 26.8,-14.24 37.24,-22.65 10.44,-8.41 17.21,-14.46 25.4,-27.81 8.19,-13.35 18,-40.09 23.74,-52.29 5.74,-12.2 8.67,-13.6 10.68,-20.9 2.01,-7.29 3.05,-18.31 1.38,-22.86 -1.66,-4.55 -9.45,-2.17 -11.39,-4.45 -1.95,-2.28 0.29,-5.26 -0.25,-9.23 -0.55,-3.96 0.35,-11.97 -3.01,-14.55 -3.36,-2.58 -8.16,-0.02 -17.16,-0.92 -9,-0.91 -26.44,-5.19 -36.85,-4.49 -10.41,0.7 -20.13,6.52 -25.6,8.69 -5.48,2.16 -8.95,4.4 -7.25,4.3 1.71,-0.1 10.56,-5.22 17.48,-4.9 6.91,0.32 16.8,2.9 24,6.81 7.2,3.92 16.84,8.95 19.22,16.66 2.38,7.71 -0.61,21.07 -4.92,29.57 -4.32,8.51 -14.95,17.52 -20.96,21.48 -6.01,3.96 -10.29,4.3 -15.12,2.28 -4.84,-2.01 -9.52,-12.55 -13.89,-14.36 -4.37,-1.81 -8.8,0.77 -12.34,3.51 -3.54,2.75 -7.83,8.82 -8.9,12.97 -1.08,4.15 2.48,3.87 2.43,11.93 -0.06,8.05 -2.2,25.92 -2.76,36.4 -0.57,10.47 -1.86,18.42 -0.65,26.44 1.21,8.02 4.66,18.59 7.91,21.65 C -8.32,6.35 -1.93,0.55 0,0"
         stroke="#1e1e1e"
         stroke-width="0.5"
         fill="none"
         id="path78" />
    </g>
  </g>
  <mask
     id="mask84" />
  <g
     stroke-linecap="round"
     id="g90"
     transform="translate(40,8)">
    <g
       transform="translate(42.79011,195.40474)"
       id="g88">
      <path
         d="m 0,0 c 1.12,4.23 5.09,15.77 6.71,25.39 1.63,9.62 2.12,22.99 3.03,32.34 0.91,9.34 3.32,18.39 2.46,23.73 -0.87,5.34 -5.91,5.55 -7.66,8.32 -1.75,2.78 -1.88,5.13 -2.84,8.32 -0.96,3.2 0.14,7.27 -2.93,10.88 -3.07,3.61 -10.45,6.39 -15.51,10.78 -5.06,4.39 -12.44,10.05 -14.84,15.55 -2.4,5.5 -0.66,10.79 0.42,17.45 1.09,6.66 4.24,15.37 6.1,22.5 1.86,7.14 2.92,16.02 5.06,20.29 2.14,4.27 0.75,4.45 7.8,5.34 7.05,0.89 16.06,-0.34 34.52,0 18.45,0.34 49.62,1.21 76.21,2.03 26.58,0.82 57.21,2.51 83.3,2.89 26.09,0.37 45.91,-0.44 73.23,-0.62 27.33,-0.18 62.2,0.07 90.73,-0.47 28.53,-0.54 63.08,-1.06 80.47,-2.79 17.39,-1.73 19.5,-3.87 23.87,-7.61 4.38,-3.75 2.54,-10.53 2.37,-14.85 -0.18,-4.32 -3.94,-6.9 -3.41,-11.06 0.53,-4.16 5.2,-9.8 6.57,-13.9 1.37,-4.1 2.02,-5.64 1.66,-10.69 -0.36,-5.04 -2.1,-14.18 -3.83,-19.57 -1.73,-5.39 -4.7,-8.01 -6.57,-12.77 -1.88,-4.76 -2.63,-10.94 -4.68,-15.79 -2.05,-4.84 -5.72,-8.39 -7.61,-13.28 -1.9,-4.9 -1.9,-10.3 -3.74,-16.08 -1.84,-5.77 -4.46,-12.46 -7.28,-18.58 -2.82,-6.11 -7.67,-11.81 -9.65,-18.11 -1.97,-6.29 -0.66,-14.5 -2.22,-19.66 -1.56,-5.17 -1.32,-6.64 -7.14,-11.3 -5.81,-4.67 -20.44,-13.23 -27.75,-16.69 -7.31,-3.46 -10.86,-3.07 -16.12,-4.07 -5.26,-1 -10.52,-1.49 -15.46,-1.94 -4.94,-0.45 -8.97,0.61 -14.18,-0.75 -5.22,-1.37 -10.2,-5.95 -17.13,-7.45 -6.93,-1.51 -16.02,-2.15 -24.48,-1.57 -8.46,0.58 -18.29,2.47 -26.28,5.05 -7.99,2.58 -13.39,7.51 -21.66,10.44 -8.26,2.93 -19.23,5.53 -27.94,7.14 -8.71,1.62 -15.44,2.08 -24.3,2.56 -8.86,0.47 -20.24,0.75 -28.84,0.28 -8.6,-0.47 -17.18,-0.58 -22.74,-3.12 -5.55,-2.55 -7.64,-6.85 -10.59,-12.15 -2.95,-5.31 -5.36,-13.6 -7.09,-19.67 -1.74,-6.08 -2.31,-10.17 -3.31,-16.78 -1,-6.62 -1.46,-15.41 -2.7,-22.89 -1.23,-7.48 -3.57,-15.86 -4.72,-21.98 -1.16,-6.13 -1.71,-10.92 -2.23,-14.75 -0.51,-3.83 -0.7,-6.86 -0.85,-8.23 M 0,0 c 1.12,4.23 5.09,15.77 6.71,25.39 1.63,9.62 2.12,22.99 3.03,32.34 0.91,9.34 3.32,18.39 2.46,23.73 -0.87,5.34 -5.91,5.55 -7.66,8.32 -1.75,2.78 -1.88,5.13 -2.84,8.32 -0.96,3.2 0.14,7.27 -2.93,10.88 -3.07,3.61 -10.45,6.39 -15.51,10.78 -5.06,4.39 -12.44,10.05 -14.84,15.55 -2.4,5.5 -0.66,10.79 0.42,17.45 1.09,6.66 4.24,15.37 6.1,22.5 1.86,7.14 2.92,16.02 5.06,20.29 2.14,4.27 0.75,4.45 7.8,5.34 7.05,0.89 16.06,-0.34 34.52,0 18.45,0.34 49.62,1.21 76.21,2.03 26.58,0.82 57.21,2.51 83.3,2.89 26.09,0.37 45.91,-0.44 73.23,-0.62 27.33,-0.18 62.2,0.07 90.73,-0.47 28.53,-0.54 63.08,-1.06 80.47,-2.79 17.39,-1.73 19.5,-3.87 23.87,-7.61 4.38,-3.75 2.54,-10.53 2.37,-14.85 -0.18,-4.32 -3.94,-6.9 -3.41,-11.06 0.53,-4.16 5.2,-9.8 6.57,-13.9 1.37,-4.1 2.02,-5.64 1.66,-10.69 -0.36,-5.04 -2.1,-14.18 -3.83,-19.57 -1.73,-5.39 -4.7,-8.01 -6.57,-12.77 -1.88,-4.76 -2.63,-10.94 -4.68,-15.79 -2.05,-4.84 -5.72,-8.39 -7.61,-13.28 -1.9,-4.9 -1.9,-10.3 -3.74,-16.08 -1.84,-5.77 -4.46,-12.46 -7.28,-18.58 -2.82,-6.11 -7.67,-11.81 -9.65,-18.11 -1.97,-6.29 -0.66,-14.5 -2.22,-19.66 -1.56,-5.17 -1.32,-6.64 -7.14,-11.3 -5.81,-4.67 -20.44,-13.23 -27.75,-16.69 -7.31,-3.46 -10.86,-3.07 -16.12,-4.07 -5.26,-1 -10.52,-1.49 -15.46,-1.94 -4.94,-0.45 -8.97,0.61 -14.18,-0.75 -5.22,-1.37 -10.2,-5.95 -17.13,-7.45 -6.93,-1.51 -16.02,-2.15 -24.48,-1.57 -8.46,0.58 -18.29,2.47 -26.28,5.05 -7.99,2.58 -13.39,7.51 -21.66,10.44 -8.26,2.93 -19.23,5.53 -27.94,7.14 -8.71,1.62 -15.44,2.08 -24.3,2.56 -8.86,0.47 -20.24,0.75 -28.84,0.28 -8.6,-0.47 -17.18,-0.58 -22.74,-3.12 -5.55,-2.55 -7.64,-6.85 -10.59,-12.15 -2.95,-5.31 -5.36,-13.6 -7.09,-19.67 -1.74,-6.08 -2.31,-10.17 -3.31,-16.78 -1,-6.62 -1.46,-15.41 -2.7,-22.89 -1.23,-7.48 -3.57,-15.86 -4.72,-21.98 -1.16,-6.13 -1.71,-10.92 -2.23,-14.75 -0.51,-3.83 -0.7,-6.86 -0.85,-8.23"
         stroke="#1e1e1e"
         stroke-width="2"
         fill="none"
         id="path86" />
    </g>
  </g>
  <mask
     id="mask92" />
  <g
     stroke-linecap="round"
     id="g98"
     transform="translate(40,8)">
    <g
       transform="translate(149.48882,67.230762)"
       id="g96">
      <path
         d="m 0,0 c 0.66,-2.28 3.88,-9.45 3.98,-13.68 0.1,-4.24 -2.07,-9.4 -3.36,-11.71 -1.29,-2.3 -2.81,-1.71 -4.39,-2.13 -1.59,-0.41 -4.02,0.81 -5.09,-0.35 -1.07,-1.17 -1.14,-4.95 -1.35,-6.66 -0.2,-1.72 -0.03,-1.38 0.12,-3.63 0.15,-2.25 1.73,-7.53 0.79,-9.89 -0.93,-2.36 -4.36,-3.67 -6.41,-4.26 -2.04,-0.6 -3.9,0.77 -5.84,0.7 -1.95,-0.07 0.74,-0.25 -5.81,-1.1 -6.56,-0.86 -25.39,-3.72 -33.53,-4.03 -8.14,-0.3 -9.18,0.49 -15.31,2.23 -6.13,1.74 -15.64,4.45 -21.47,8.22 -5.83,3.78 -10.92,9.44 -13.52,14.42 -2.6,4.99 -0.96,10.48 -2.08,15.51 -1.12,5.03 -3.89,12.22 -4.67,14.66 M 0,0 c 0.66,-2.28 3.88,-9.45 3.98,-13.68 0.1,-4.24 -2.07,-9.4 -3.36,-11.71 -1.29,-2.3 -2.81,-1.71 -4.39,-2.13 -1.59,-0.41 -4.02,0.81 -5.09,-0.35 -1.07,-1.17 -1.14,-4.95 -1.35,-6.66 -0.2,-1.72 -0.03,-1.38 0.12,-3.63 0.15,-2.25 1.73,-7.53 0.79,-9.89 -0.93,-2.36 -4.36,-3.67 -6.41,-4.26 -2.04,-0.6 -3.9,0.77 -5.84,0.7 -1.95,-0.07 0.74,-0.25 -5.81,-1.1 -6.56,-0.86 -25.39,-3.72 -33.53,-4.03 -8.14,-0.3 -9.18,0.49 -15.31,2.23 -6.13,1.74 -15.64,4.45 -21.47,8.22 -5.83,3.78 -10.92,9.44 -13.52,14.42 -2.6,4.99 -0.96,10.48 -2.08,15.51 -1.12,5.03 -3.89,12.22 -4.67,14.66"
         stroke="#1e1e1e"
         stroke-width="2"
         fill="none"
         id="path94" />
    </g>
  </g>
  <mask
     id="mask100" />
  <g
     stroke-linecap="round"
     id="g106"
     transform="translate(40,8)">
    <g
       transform="translate(31.727085,65.150488)"
       id="g104">
      <path
         d="m 0,0 c -0.6,1.51 -3.84,5.78 -3.59,9.03 0.24,3.25 4.36,6.45 5.06,10.5 0.69,4.05 -1.57,10.43 -0.9,13.8 0.67,3.37 4.4,1 4.91,6.43 C 6,45.19 3.99,54.58 3.64,65.91 3.29,77.23 2.88,98.5 3.36,107.7 c 0.48,9.21 1.45,9.78 3.16,13.43 1.72,3.65 0.18,10.41 7.14,8.46 6.97,-1.94 24.4,-12.99 34.66,-20.14 10.26,-7.15 19.93,-14.73 26.9,-22.74 6.97,-8.01 10.52,-16.68 14.94,-25.29 4.42,-8.62 8.12,-18.83 11.58,-26.39 3.46,-7.55 6.67,-14.27 9.17,-18.96 2.51,-4.68 4.89,-7.64 5.87,-9.17 M 0,0 c -0.6,1.51 -3.84,5.78 -3.59,9.03 0.24,3.25 4.36,6.45 5.06,10.5 0.69,4.05 -1.57,10.43 -0.9,13.8 0.67,3.37 4.4,1 4.91,6.43 C 6,45.19 3.99,54.58 3.64,65.91 3.29,77.23 2.88,98.5 3.36,107.7 c 0.48,9.21 1.45,9.78 3.16,13.43 1.72,3.65 0.18,10.41 7.14,8.46 6.97,-1.94 24.4,-12.99 34.66,-20.14 10.26,-7.15 19.93,-14.73 26.9,-22.74 6.97,-8.01 10.52,-16.68 14.94,-25.29 4.42,-8.62 8.12,-18.83 11.58,-26.39 3.46,-7.55 6.67,-14.27 9.17,-18.96 2.51,-4.68 4.89,-7.64 5.87,-9.17"
         stroke="#1e1e1e"
         stroke-width="2"
         fill="none"
         id="path102" />
    </g>
  </g>
  <mask
     id="mask108" />
  <g
     stroke-linecap="round"
     id="g114"
     transform="translate(40,8)">
    <g
       transform="translate(482.28481,292.27993)"
       id="g112">
      <path
         d="m 0,0 c -2.05,2.53 -2.55,10.84 -12.29,15.18 -9.74,4.33 -32.13,9.63 -46.15,10.82 -14.01,1.2 -26.35,-1.67 -37.96,-3.64 -11.61,-1.97 -20.83,-3.4 -31.68,-8.18 -10.84,-4.77 -23.93,-12.6 -33.37,-20.47 -9.45,-7.86 -17.18,-17.55 -23.31,-26.71 -6.13,-9.17 -11.35,-17.79 -13.48,-28.27 -2.12,-10.48 -0.43,-25.55 0.71,-34.61 1.15,-9.06 2.46,-14.64 6.15,-19.77 3.69,-5.12 10.05,-8.47 16,-10.98 5.95,-2.52 11.73,-3.49 19.72,-4.09 7.99,-0.6 19.82,-1.24 28.22,0.48 8.41,1.71 14.84,5.98 22.2,9.82 7.36,3.84 15.25,9.28 21.98,13.24 6.74,3.95 13.66,5.94 18.44,10.49 4.79,4.56 9.49,10.31 10.26,16.84 0.77,6.52 -2.06,15.51 -5.62,22.31 -3.57,6.8 -10.71,11.25 -15.75,18.49 -5.04,7.23 -9.76,19.48 -14.51,24.91 -4.75,5.44 -10.02,7.17 -14,7.71 -3.98,0.54 -9.17,0.48 -9.88,-4.44 -0.71,-4.93 3.62,-17.12 5.63,-25.11 2.01,-7.99 4.75,-15.49 6.43,-22.84 1.68,-7.34 2.5,-15.68 3.64,-21.22 1.13,-5.55 3.7,-7.41 3.17,-12.06 -0.54,-4.65 -2.57,-11.39 -6.39,-15.84 -3.81,-4.44 -10.02,-8.25 -16.5,-10.83 -6.47,-2.57 -15.78,-4.35 -22.36,-4.63 -6.58,-0.28 -11.54,0.21 -17.11,2.93 -5.57,2.73 -12.94,7.97 -16.31,13.43 -3.38,5.46 -3.71,11.32 -3.93,19.34 -0.22,8.01 0.89,20.75 2.6,28.74 1.71,7.99 3.87,12.97 7.66,19.2 3.79,6.23 8.98,12.83 15.08,18.2 6.1,5.37 13.61,10.07 21.51,14.04 7.91,3.97 15.57,7.23 25.91,9.79 10.34,2.56 23.97,6.18 36.12,5.58 12.15,-0.6 28.21,-5.57 36.78,-9.17 8.58,-3.6 11.27,-7.69 14.66,-12.44 3.39,-4.75 5,-11.32 5.67,-16.07 0.67,-4.75 -1.37,-10.37 -1.65,-12.44 M 0,0 c -2.05,2.53 -2.55,10.84 -12.29,15.18 -9.74,4.33 -32.13,9.63 -46.15,10.82 -14.01,1.2 -26.35,-1.67 -37.96,-3.64 -11.61,-1.97 -20.83,-3.4 -31.68,-8.18 -10.84,-4.77 -23.93,-12.6 -33.37,-20.47 -9.45,-7.86 -17.18,-17.55 -23.31,-26.71 -6.13,-9.17 -11.35,-17.79 -13.48,-28.27 -2.12,-10.48 -0.43,-25.55 0.71,-34.61 1.15,-9.06 2.46,-14.64 6.15,-19.77 3.69,-5.12 10.05,-8.47 16,-10.98 5.95,-2.52 11.73,-3.49 19.72,-4.09 7.99,-0.6 19.82,-1.24 28.22,0.48 8.41,1.71 14.84,5.98 22.2,9.82 7.36,3.84 15.25,9.28 21.98,13.24 6.74,3.95 13.66,5.94 18.44,10.49 4.79,4.56 9.49,10.31 10.26,16.84 0.77,6.52 -2.06,15.51 -5.62,22.31 -3.57,6.8 -10.71,11.25 -15.75,18.49 -5.04,7.23 -9.76,19.48 -14.51,24.91 -4.75,5.44 -10.02,7.17 -14,7.71 -3.98,0.54 -9.17,0.48 -9.88,-4.44 -0.71,-4.93 3.62,-17.12 5.63,-25.11 2.01,-7.99 4.75,-15.49 6.43,-22.84 1.68,-7.34 2.5,-15.68 3.64,-21.22 1.13,-5.55 3.7,-7.41 3.17,-12.06 -0.54,-4.65 -2.57,-11.39 -6.39,-15.84 -3.81,-4.44 -10.02,-8.25 -16.5,-10.83 -6.47,-2.57 -15.78,-4.35 -22.36,-4.63 -6.58,-0.28 -11.54,0.21 -17.11,2.93 -5.57,2.73 -12.94,7.97 -16.31,13.43 -3.38,5.46 -3.71,11.32 -3.93,19.34 -0.22,8.01 0.89,20.75 2.6,28.74 1.71,7.99 3.87,12.97 7.66,19.2 3.79,6.23 8.98,12.83 15.08,18.2 6.1,5.37 13.61,10.07 21.51,14.04 7.91,3.97 15.57,7.23 25.91,9.79 10.34,2.56 23.97,6.18 36.12,5.58 12.15,-0.6 28.21,-5.57 36.78,-9.17 8.58,-3.6 11.27,-7.69 14.66,-12.44 3.39,-4.75 5,-11.32 5.67,-16.07 0.67,-4.75 -1.37,-10.37 -1.65,-12.44"
         stroke="#1e1e1e"
         stroke-width="2"
         fill="none"
         id="path110" />
    </g>
  </g>
  <mask
     id="mask116" />
  <g
     stroke-linecap="round"
     id="g122"
     transform="translate(40,8)">
    <g
       transform="translate(18.58386,363.10415)"
       id="g120">
      <path
         d="m 0,0 c 3.47,2.01 10.87,10.23 20.8,12.06 9.93,1.82 26.25,-0.86 38.77,-1.09 12.52,-0.23 25.03,1.39 36.36,-0.28 11.32,-1.68 23.08,-4.43 31.58,-9.74 8.49,-5.32 15.75,-14.22 19.38,-22.13 3.63,-7.91 2.41,-19.54 2.41,-25.34 0,-5.81 1.22,-9.16 -2.41,-9.51 -3.62,-0.34 -13.33,4.74 -19.33,7.43 -6.01,2.68 -11.73,5.09 -16.69,8.7 -4.97,3.61 -9.04,10.23 -13.1,12.95 -4.06,2.72 -8.6,4.59 -11.25,3.36 -2.66,-1.23 -1.52,-10.04 -4.68,-10.73 -3.16,-0.7 -8.55,5.16 -14.28,6.57 -5.73,1.4 -14.49,1.16 -20.09,1.84 -5.61,0.69 -14.53,3.82 -13.52,2.27 1,-1.55 12.27,-8.61 19.52,-11.58 7.25,-2.97 16.89,-4.43 23.97,-6.24 7.08,-1.82 15.45,-3.86 18.53,-4.64 M 0,0 c 3.47,2.01 10.87,10.23 20.8,12.06 9.93,1.82 26.25,-0.86 38.77,-1.09 12.52,-0.23 25.03,1.39 36.36,-0.28 11.32,-1.68 23.08,-4.43 31.58,-9.74 8.49,-5.32 15.75,-14.22 19.38,-22.13 3.63,-7.91 2.41,-19.54 2.41,-25.34 0,-5.81 1.22,-9.16 -2.41,-9.51 -3.62,-0.34 -13.33,4.74 -19.33,7.43 -6.01,2.68 -11.73,5.09 -16.69,8.7 -4.97,3.61 -9.04,10.23 -13.1,12.95 -4.06,2.72 -8.6,4.59 -11.25,3.36 -2.66,-1.23 -1.52,-10.04 -4.68,-10.73 -3.16,-0.7 -8.55,5.16 -14.28,6.57 -5.73,1.4 -14.49,1.16 -20.09,1.84 -5.61,0.69 -14.53,3.82 -13.52,2.27 1,-1.55 12.27,-8.61 19.52,-11.58 7.25,-2.97 16.89,-4.43 23.97,-6.24 7.08,-1.82 15.45,-3.86 18.53,-4.64"
         stroke="#1e1e1e"
         stroke-width="2"
         fill="none"
         id="path118" />
    </g>
  </g>
  <mask
     id="mask124" />
  <g
     stroke-linecap="round"
     id="g130"
     transform="translate(40,8)">
    <g
       transform="translate(165.94885,346.55649)"
       id="g128">
      <path
         d="m 0,0 c 8.08,0.76 33.94,3.65 48.51,4.54 14.57,0.89 28.14,1.92 38.91,0.8 10.77,-1.12 16.67,-2.97 25.72,-7.51 9.04,-4.55 19.51,-15.27 28.55,-19.77 9.04,-4.5 14.02,-9.46 25.67,-7.23 11.66,2.23 28.45,15.62 44.26,20.61 15.8,5 35.02,8.16 50.58,9.36 15.57,1.21 33.74,2.74 42.79,-2.12 9.05,-4.87 8.67,-19.25 11.49,-27.05 2.82,-7.79 4.53,-16.43 5.43,-19.71 M 0,0 c 8.08,0.76 33.94,3.65 48.51,4.54 14.57,0.89 28.14,1.92 38.91,0.8 10.77,-1.12 16.67,-2.97 25.72,-7.51 9.04,-4.55 19.51,-15.27 28.55,-19.77 9.04,-4.5 14.02,-9.46 25.67,-7.23 11.66,2.23 28.45,15.62 44.26,20.61 15.8,5 35.02,8.16 50.58,9.36 15.57,1.21 33.74,2.74 42.79,-2.12 9.05,-4.87 8.67,-19.25 11.49,-27.05 2.82,-7.79 4.53,-16.43 5.43,-19.71"
         stroke="#1e1e1e"
         stroke-width="2"
         fill="none"
         id="path126" />
    </g>
  </g>
  <mask
     id="mask132" />
  <g
     stroke-linecap="round"
     id="g138"
     transform="translate(40,8)">
    <g
       transform="translate(394.67327,342.7722)"
       id="g136">
      <path
         d="m 0,0 c -5.58,-1.08 -23.24,-4.39 -33.47,-6.48 -10.24,-2.09 -18.72,-6.36 -27.94,-6.05 -9.22,0.32 -19.97,4.35 -27.38,7.94 -7.4,3.6 -13.27,8.51 -17.07,13.62 -3.79,5.11 -7.8,12.31 -5.72,17.07 2.09,4.76 8.96,10.15 18.25,11.49 9.3,1.34 28.22,-1.14 37.54,-3.45 9.32,-2.32 11.56,-9.34 18.39,-10.45 6.83,-1.11 11.39,2.88 22.6,3.78 11.21,0.9 30.09,0.84 44.68,1.61 14.59,0.76 33.93,3.75 42.88,2.98 8.95,-0.78 9.86,-2.92 10.83,-7.62 0.97,-4.7 -4.17,-17.15 -5,-20.58 M 0,0 c -5.58,-1.08 -23.24,-4.39 -33.47,-6.48 -10.24,-2.09 -18.72,-6.36 -27.94,-6.05 -9.22,0.32 -19.97,4.35 -27.38,7.94 -7.4,3.6 -13.27,8.51 -17.07,13.62 -3.79,5.11 -7.8,12.31 -5.72,17.07 2.09,4.76 8.96,10.15 18.25,11.49 9.3,1.34 28.22,-1.14 37.54,-3.45 9.32,-2.32 11.56,-9.34 18.39,-10.45 6.83,-1.11 11.39,2.88 22.6,3.78 11.21,0.9 30.09,0.84 44.68,1.61 14.59,0.76 33.93,3.75 42.88,2.98 8.95,-0.78 9.86,-2.92 10.83,-7.62 0.97,-4.7 -4.17,-17.15 -5,-20.58"
         stroke="#1e1e1e"
         stroke-width="2"
         fill="none"
         id="path134" />
    </g>
  </g>
  <mask
     id="mask140" />
  <g
     stroke-linecap="round"
     id="g146"
     transform="translate(40,8)">
    <g
       transform="translate(55.684498,80.398729)"
       id="g144">
      <path
         d="m 0,0 c 2.05,2.06 7.75,8.01 12.32,12.34 4.58,4.32 11.19,9.67 15.13,13.61 3.94,3.94 6.64,5.47 8.51,10.03 1.87,4.55 2.22,12.43 2.69,17.3 0.48,4.87 0.12,9.93 0.15,11.91 M 0,0 c 2.05,2.06 7.75,8.01 12.32,12.34 4.58,4.32 11.19,9.67 15.13,13.61 3.94,3.94 6.64,5.47 8.51,10.03 1.87,4.55 2.22,12.43 2.69,17.3 0.48,4.87 0.12,9.93 0.15,11.91"
         stroke="#1e1e1e"
         stroke-width="2"
         fill="none"
         id="path142" />
    </g>
  </g>
  <mask
     id="mask148" />
  <g
     stroke-linecap="round"
     id="g154"
     transform="translate(40,8)">
    <g
       transform="translate(47.517894,81.603711)"
       id="g152">
      <path
         d="m 0,0 c -1.52,1.6 -6.93,6.56 -9.12,9.6 -2.2,3.04 -3.35,7.21 -4.02,8.65 M 0,0 c -1.52,1.6 -6.93,6.56 -9.12,9.6 -2.2,3.04 -3.35,7.21 -4.02,8.65"
         stroke="#1e1e1e"
         stroke-width="2"
         fill="none"
         id="path150" />
    </g>
  </g>
  <mask
     id="mask156" />
  <g
     stroke-linecap="round"
     id="g162"
     transform="translate(40,8)">
    <g
       transform="translate(67.658164,45.540182)"
       id="g160">
      <path
         d="m 0,0 c 1.01,0.94 3.17,4.55 6.04,5.62 2.87,1.07 7.98,1.22 11.18,0.8 3.19,-0.43 7.23,-1.33 8,-3.34 0.77,-2.01 -1.38,-6.74 -3.4,-8.72 C 19.8,-7.61 16.23,-8.75 13.13,-8.77 10.02,-8.8 5.38,-7.27 3.19,-5.81 1,-4.35 0.53,-0.97 0,0 m 0,0 c 1.01,0.94 3.17,4.55 6.04,5.62 2.87,1.07 7.98,1.22 11.18,0.8 3.19,-0.43 7.23,-1.33 8,-3.34 0.77,-2.01 -1.38,-6.74 -3.4,-8.72 C 19.8,-7.61 16.23,-8.75 13.13,-8.77 10.02,-8.8 5.38,-7.27 3.19,-5.81 1,-4.35 0.53,-0.97 0,0"
         stroke="#1e1e1e"
         stroke-width="2"
         fill="none"
         id="path158" />
    </g>
  </g>
  <mask
     id="mask164" />
  <g
     stroke-linecap="round"
     id="g170"
     transform="translate(40,8)">
    <g
       transform="translate(36.531298,47.724944)"
       id="g168">
      <path
         d="m 0,0 c 0.7,0.99 1.88,5.33 4.2,5.95 2.31,0.62 7.47,-0.75 9.69,-2.23 2.22,-1.49 3.73,-4.39 3.64,-6.66 -0.09,-2.27 -1.9,-6.25 -4.19,-6.98 -2.28,-0.73 -7.3,0.94 -9.53,2.59 C 1.59,-5.67 0.64,-1.22 0,0 m 0,0 c 0.7,0.99 1.88,5.33 4.2,5.95 2.31,0.62 7.47,-0.75 9.69,-2.23 2.22,-1.49 3.73,-4.39 3.64,-6.66 -0.09,-2.27 -1.9,-6.25 -4.19,-6.98 -2.28,-0.73 -7.3,0.94 -9.53,2.59 C 1.59,-5.67 0.64,-1.22 0,0"
         stroke="#1e1e1e"
         stroke-width="2"
         fill="none"
         id="path166" />
    </g>
  </g>
  <mask
     id="mask172" />
  <g
     stroke-linecap="round"
     id="g178"
     transform="translate(40,8)">
    <g
       transform="translate(75.018219,96.140212)"
       id="g176">
      <path
         d="m 0,0 c 2.82,-1.19 11.94,-3.16 16.92,-7.13 4.98,-3.97 9.56,-11.22 12.96,-16.68 3.41,-5.45 6.7,-10.49 7.47,-16.03 0.78,-5.54 -0.91,-12.98 -2.82,-17.2 -1.91,-4.21 -4.2,-5.16 -8.66,-8.09 -4.45,-2.94 -12.75,-7.33 -18.08,-9.52 -5.33,-2.19 -9.58,-3.45 -13.91,-3.62 -4.32,-0.16 -8.5,1.55 -12.06,2.62 -3.55,1.07 -7.73,3.17 -9.28,3.8 M 0,0 c 2.82,-1.19 11.94,-3.16 16.92,-7.13 4.98,-3.97 9.56,-11.22 12.96,-16.68 3.41,-5.45 6.7,-10.49 7.47,-16.03 0.78,-5.54 -0.91,-12.98 -2.82,-17.2 -1.91,-4.21 -4.2,-5.16 -8.66,-8.09 -4.45,-2.94 -12.75,-7.33 -18.08,-9.52 -5.33,-2.19 -9.58,-3.45 -13.91,-3.62 -4.32,-0.16 -8.5,1.55 -12.06,2.62 -3.55,1.07 -7.73,3.17 -9.28,3.8"
         stroke="#1e1e1e"
         stroke-width="2"
         fill="none"
         id="path174" />
    </g>
  </g>
  <mask
     id="mask180" />
  <g
     stroke-linecap="round"
     id="g186"
     transform="translate(40,8)">
    <g
       transform="translate(42.109066,96.391425)"
       id="g184">
      <path
         d="m 0,0 c 1.04,-0.21 3.51,-1.39 6.23,-1.27 2.72,0.13 8.42,1.69 10.1,2.02 M 0,0 c 1.04,-0.21 3.51,-1.39 6.23,-1.27 2.72,0.13 8.42,1.69 10.1,2.02"
         stroke="#1e1e1e"
         stroke-width="2"
         fill="none"
         id="path182" />
    </g>
  </g>
  <mask
     id="mask188" />
  <g
     stroke-linecap="round"
     id="g194"
     transform="translate(40,8)">
    <g
       transform="translate(132.22086,61.403584)"
       id="g192">
      <path
         d="m 0,0 c -1.51,5.18 -6.13,20.77 -9.06,31.06 -2.93,10.28 -7.09,25.53 -8.51,30.64 M 0,0 c -1.51,5.18 -6.13,20.77 -9.06,31.06 -2.93,10.28 -7.09,25.53 -8.51,30.64"
         stroke="#1e1e1e"
         stroke-width="2"
         fill="none"
         id="path190" />
    </g>
  </g>
  <mask
     id="mask196" />
  <g
     stroke-linecap="round"
     id="g202"
     transform="translate(40,8)">
    <g
       transform="translate(127.63843,38.155399)"
       id="g200">
      <path
         d="m 0,0 c -1.59,5.93 -6.58,24.76 -9.57,35.59 -2.98,10.83 -5.52,20.33 -8.35,29.39 -2.82,9.07 -7.16,20.83 -8.6,24.99 M 0,0 c -1.59,5.93 -6.58,24.76 -9.57,35.59 -2.98,10.83 -5.52,20.33 -8.35,29.39 -2.82,9.07 -7.16,20.83 -8.6,24.99"
         stroke="#1e1e1e"
         stroke-width="2"
         fill="none"
         id="path198" />
    </g>
  </g>
  <mask
     id="mask204" />
  <g
     stroke-linecap="round"
     id="g210"
     transform="translate(40,8)">
    <g
       transform="translate(45.773366,113.84484)"
       id="g208">
      <path
         d="M 0,0 C -0.37,5.72 -1.32,23.87 -2.21,34.34 -3.1,44.8 -4.82,58.04 -5.34,62.79 M 0,0 C -0.37,5.72 -1.32,23.87 -2.21,34.34 -3.1,44.8 -4.82,58.04 -5.34,62.79"
         stroke="#1e1e1e"
         stroke-width="2"
         fill="none"
         id="path206" />
    </g>
  </g>
  <mask
     id="mask212" />
  <g
     stroke-linecap="round"
     id="g218"
     transform="translate(40,8)">
    <g
       transform="translate(63.816683,114.67333)"
       id="g216">
      <path
         d="m 0,0 c -1.2,4.34 -5.44,18.24 -7.23,26.05 -1.78,7.81 -2.44,14.54 -3.49,20.81 -1.06,6.27 -2.34,14 -2.81,16.8 M 0,0 c -1.2,4.34 -5.44,18.24 -7.23,26.05 -1.78,7.81 -2.44,14.54 -3.49,20.81 -1.06,6.27 -2.34,14 -2.81,16.8"
         stroke="#1e1e1e"
         stroke-width="2"
         fill="none"
         id="path214" />
    </g>
  </g>
  <mask
     id="mask220" />
  <g
     stroke-linecap="round"
     id="g226"
     transform="translate(40,8)">
    <g
       transform="translate(76.290494,121.48584)"
       id="g224">
      <path
         d="m 0,0 c -1.25,4.78 -4.66,19.09 -7.5,28.68 -2.84,9.58 -7.94,24.01 -9.53,28.81 M 0,0 c -1.25,4.78 -4.66,19.09 -7.5,28.68 -2.84,9.58 -7.94,24.01 -9.53,28.81"
         stroke="#1e1e1e"
         stroke-width="2"
         fill="none"
         id="path222" />
    </g>
  </g>
  <mask
     id="mask228" />
  <g
     stroke-linecap="round"
     id="g234"
     transform="translate(40,8)">
    <g
       transform="translate(101.9831,89.582407)"
       id="g232">
      <path
         d="M 0,0 C -1.13,3.53 -7.17,22.9 -6.77,21.15 -6.37,19.4 0.87,-5.22 2.39,-10.49 M 0,0 c -1.13,3.53 -7.17,22.9 -6.77,21.15 0.4,-1.75 7.64,-26.37 9.16,-31.64"
         stroke="#1e1e1e"
         stroke-width="2"
         fill="none"
         id="path230" />
    </g>
  </g>
  <mask
     id="mask236" />
  <g
     stroke-linecap="round"
     id="g242"
     transform="translate(40,8)">
    <g
       transform="translate(84.989975,135.6171)"
       id="g240">
      <path
         d="M 0,0 C -2.24,6.44 -11.2,32.22 -13.44,38.67 M 0,0 c -2.24,6.44 -11.2,32.22 -13.44,38.67"
         stroke="#1e1e1e"
         stroke-width="2"
         fill="none"
         id="path238" />
    </g>
  </g>
  <mask
     id="mask244" />
  <g
     stroke-linecap="round"
     id="g250"
     transform="translate(40,8)">
    <g
       transform="translate(394.30394,197.52777)"
       id="g248">
      <path
         d="m 0,0 c -1.26,6.84 -4.03,27.93 -7.55,41.06 -3.52,13.13 -11.31,31.41 -13.58,37.7 M 0,0 c -1.26,6.84 -4.03,27.93 -7.55,41.06 -3.52,13.13 -11.31,31.41 -13.58,37.7"
         stroke="#1e1e1e"
         stroke-width="2"
         fill="none"
         id="path246" />
    </g>
  </g>
  <mask
     id="mask252" />
  <g
     stroke-linecap="round"
     id="g258"
     transform="translate(40,8)">
    <g
       transform="translate(403.60184,198.86264)"
       id="g256">
      <path
         d="m 0,0 c -0.93,4.89 -3.25,19.83 -5.57,29.37 -2.32,9.53 -5.87,19.75 -8.33,27.85 -2.46,8.09 -5.37,17.26 -6.44,20.71 M 0,0 c -0.93,4.89 -3.25,19.83 -5.57,29.37 -2.32,9.53 -5.87,19.75 -8.33,27.85 -2.46,8.09 -5.37,17.26 -6.44,20.71"
         stroke="#1e1e1e"
         stroke-width="2"
         fill="none"
         id="path254" />
    </g>
  </g>
  <mask
     id="mask260" />
  <g
     stroke-linecap="round"
     id="g266"
     transform="translate(40,8)">
    <g
       transform="translate(412.66947,203.18947)"
       id="g264">
      <path
         d="m 0,0 c -0.48,3.49 -1.49,14.53 -2.85,20.94 -1.37,6.42 -3.69,12.97 -5.34,17.54 -1.66,4.57 -3.84,8.25 -4.61,9.9 M 0,0 c -0.48,3.49 -1.49,14.53 -2.85,20.94 -1.37,6.42 -3.69,12.97 -5.34,17.54 -1.66,4.57 -3.84,8.25 -4.61,9.9"
         stroke="#1e1e1e"
         stroke-width="2"
         fill="none"
         id="path262" />
    </g>
  </g>
  <mask
     id="mask268" />
  <g
     stroke-linecap="round"
     id="g274"
     transform="translate(40,8)">
    <g
       transform="translate(419.61984,207.97667)"
       id="g272">
      <path
         d="m 0,0 c -0.15,2.26 0.43,8.29 -0.87,13.53 -1.31,5.25 -5.8,14.96 -6.95,17.95 M 0,0 c -0.15,2.26 0.43,8.29 -0.87,13.53 -1.31,5.25 -5.8,14.96 -6.95,17.95"
         stroke="#1e1e1e"
         stroke-width="2"
         fill="none"
         id="path270" />
    </g>
  </g>
  <mask
     id="mask276" />
  <g
     stroke-linecap="round"
     id="g282"
     transform="translate(40,8)">
    <g
       transform="translate(328.98901,332.71854)"
       id="g280">
      <path
         d="m 0,0 c 1.21,3.05 4.95,11.85 7.27,18.27 2.33,6.43 5.56,16.88 6.68,20.26 M 0,0 c 1.21,3.05 4.95,11.85 7.27,18.27 2.33,6.43 5.56,16.88 6.68,20.26"
         stroke="#1e1e1e"
         stroke-width="2"
         fill="none"
         id="path278" />
    </g>
  </g>
  <mask
     id="mask284" />
  <g
     stroke-linecap="round"
     id="g290"
     transform="translate(40,8)">
    <g
       transform="translate(121.5829,330.27902)"
       id="g288">
      <path
         d="m 0,0 c 1.05,2.73 4.39,11.33 6.31,16.39 1.91,5.05 3.78,10.34 5.2,13.94 1.42,3.61 2.76,6.41 3.31,7.69 M 0,0 c 1.05,2.73 4.39,11.33 6.31,16.39 1.91,5.05 3.78,10.34 5.2,13.94 1.42,3.61 2.76,6.41 3.31,7.69"
         stroke="#1e1e1e"
         stroke-width="2"
         fill="none"
         id="path286" />
    </g>
  </g>
  <mask
     id="mask292" />
  <g
     stroke-linecap="round"
     id="g298"
     transform="translate(40,8)">
    <g
       transform="translate(50.643383,53.151556)"
       id="g296">
      <path
         d="m 0,0 c -0.84,1.74 -3.66,6.98 -5.04,10.44 -1.38,3.46 -2.81,7.55 -3.26,10.32 -0.46,2.77 -1,5.09 0.54,6.31 1.54,1.22 5.9,1.06 8.67,1 C 3.69,28.02 7.49,28.66 8.9,26.73 10.31,24.8 9.3,18.2 9.38,16.49 M 0,0 c -0.84,1.74 -3.66,6.98 -5.04,10.44 -1.38,3.46 -2.81,7.55 -3.26,10.32 -0.46,2.77 -1,5.09 0.54,6.31 1.54,1.22 5.9,1.06 8.67,1 2.78,-0.05 6.58,0.59 7.99,-1.34 1.41,-1.93 0.4,-8.53 0.48,-10.24"
         stroke="#1e1e1e"
         stroke-width="2"
         fill="none"
         id="path294" />
    </g>
  </g>
  <mask
     id="mask300" />
  <g
     stroke-linecap="round"
     id="g306"
     transform="translate(40,8)">
    <g
       transform="translate(49.031365,81.757524)"
       id="g304">
      <path
         d="M 0,0 C 0.97,-0.28 5.65,-0.71 5.8,-1.68 5.96,-2.66 3.09,-5.53 0.93,-5.85 -1.23,-6.16 -7.03,-4.55 -7.18,-3.57 -7.34,-2.6 -1.2,-0.6 0,0 M 0,0 C 0.97,-0.28 5.65,-0.71 5.8,-1.68 5.96,-2.66 3.09,-5.53 0.93,-5.85 -1.23,-6.16 -7.03,-4.55 -7.18,-3.57 -7.34,-2.6 -1.2,-0.6 0,0"
         stroke="#1e1e1e"
         stroke-width="2"
         fill="none"
         id="path302" />
    </g>
  </g>
  <mask
     id="mask308" />
  <g
     stroke-linecap="round"
     id="g314"
     transform="translate(40,8)">
    <g
       transform="translate(91.365403,151.40967)"
       id="g312">
      <path
         d="M 0,0 C -0.89,2.23 -4.45,11.15 -5.34,13.38 M 0,0 c -0.89,2.23 -4.45,11.15 -5.34,13.38"
         stroke="#1e1e1e"
         stroke-width="2"
         fill="none"
         id="path310" />
    </g>
  </g>
  <mask
     id="mask316" />
  <g
     transform="translate(95.087984,198.87691)"
     stroke="none"
     id="g322">
    <path
       d=""
       stroke="#1e1e1e"
       stroke-width="0.25"
       fill="none"
       id="path318" />
    <path
       fill="#1e1e1e"
       d="m 0.88,-0.27 q 0,0 0.02,0.22 Q 0.91,0.16 0.82,0.37 0.73,0.57 0.55,0.71 0.38,0.84 0.16,0.88 -0.05,0.92 -0.26,0.86 -0.48,0.79 -0.63,0.63 -0.79,0.48 -0.86,0.26 -0.92,0.05 -0.88,-0.16 q 0.04,-0.22 0.17,-0.39 0.14,-0.18 0.34,-0.27 0.21,-0.09 0.42,-0.08 0.22,0.02 0.41,0.13 0.19,0.12 0.31,0.31 z"
       id="path320" />
  </g>
  <g
     transform="translate(131.08645,175.44941)"
     stroke="none"
     id="g328">
    <path
       d="M 0,0 C 0,0 0,0 0,0 M 0,0 C 0,0 0,0 0,0"
       stroke="#1e1e1e"
       stroke-width="0.25"
       fill="none"
       id="path324" />
    <path
       fill="#1e1e1e"
       d="m 0.74,0.51 q 0,0 -0.2,0.16 Q 0.35,0.82 0.3,0.88 0.24,0.94 0.18,0.99 0.11,1.03 0.04,1.06 -0.02,1.09 -0.1,1.1 -0.18,1.11 -0.26,1.1 -0.34,1.09 -0.41,1.06 -0.49,1.03 -0.55,0.99 -0.62,0.94 -0.67,0.88 -0.72,0.83 -0.76,0.76 -0.8,0.69 -0.81,0.61 -0.83,0.53 -0.83,0.45 q 0,-0.08 0.01,-0.15 0.02,-0.08 0.06,-0.15 0.04,-0.07 0.06,-0.1 0.02,-0.03 0.1,-0.09 0.08,-0.06 0.18,-0.1 0.1,-0.04 0.21,-0.05 0.1,0 0.21,0.03 0.09,0.03 0.18,0.09 0.08,0.06 0.15,0.13 0.06,0.09 0.09,0.19 0.04,0.1 0.04,0.21 Q 0.45,0.56 0.42,0.66 0.39,0.77 0.32,0.85 0.26,0.93 0.17,0.99 0.08,1.05 -0.01,1.08 -0.12,1.11 -0.22,1.1 -0.33,1.09 -0.43,1.05 -0.53,1.01 -0.61,0.94 -0.69,0.87 -0.74,0.78 -0.79,0.69 -0.82,0.59 -0.84,0.48 -0.83,0.38 -0.81,0.27 -0.77,0.17 -0.72,0.08 -0.65,0 q 0.08,-0.06 0.17,-0.11 0.09,-0.05 0.2,-0.07 0.1,-0.01 0.21,0 0.09,0.02 0.19,0.07 0.09,0.05 0.16,0.12 Q 0.35,0.09 0.4,0.19 0.44,0.28 0.45,0.39 0.46,0.49 0.44,0.6 0.42,0.7 0.38,0.76 0.35,0.82 0.3,0.88 0.24,0.94 0.18,0.99 0.11,1.03 0.04,1.06 -0.02,1.09 -0.1,1.1 -0.18,1.11 -0.26,1.1 -0.34,1.09 -0.41,1.06 -0.49,1.03 -0.55,0.99 -0.62,0.94 -0.67,0.88 -0.72,0.83 -0.76,0.76 -0.8,0.69 -0.81,0.61 -0.83,0.53 -0.83,0.45 q 0,-0.08 0.01,-0.15 0.02,-0.08 0.06,-0.15 0.04,-0.07 0.03,-0.36 -0.01,-0.3 0.06,-0.38 0.07,-0.08 0.16,-0.14 0.09,-0.07 0.2,-0.11 0.1,-0.03 0.21,-0.05 0.1,-0.01 0.2,0 0.11,0.02 0.21,0.05 0.11,0.04 0.2,0.11 0.09,0.06 0.16,0.14 0.07,0.08 0.12,0.18 0.05,0.09 0.08,0.2 0.02,0.11 0.02,0.21 0,0.1 -0.02,0.21 -0.03,0.11 -0.08,0.2 -0.05,0.1 -0.05,0.1 z"
       id="path326" />
  </g>
  <g
     stroke-linecap="round"
     id="g334"
     transform="translate(40,8)">
    <g
       transform="translate(386.43765,203.91154)"
       id="g332">
      <path
         d="m 0,0 c 0.44,-1.48 1.04,-6.52 2.64,-8.85 1.6,-2.34 4.33,-4.15 6.99,-5.19 2.65,-1.03 7.44,-0.84 8.93,-1.01 M 0,0 c 0.44,-1.48 1.04,-6.52 2.64,-8.85 1.6,-2.34 4.33,-4.15 6.99,-5.19 2.65,-1.03 7.44,-0.84 8.93,-1.01"
         stroke="#1e1e1e"
         stroke-width="2"
         fill="none"
         id="path330" />
    </g>
  </g>
  <mask
     id="mask336" />
  <g
     stroke-linecap="round"
     transform="rotate(6.7098202,-329.32812,1014.4251)"
     id="g342">
    <path
       d="M 3,0 5.7,7 3,13.41 0,7"
       stroke="none"
       stroke-width="0"
       fill="#1e1e1e"
       fill-rule="evenodd"
       id="path338" />
    <path
       d="M 3,0 C 4.03,2.67 5.06,5.34 5.7,7 M 3,0 c 1,2.59 1.99,5.18 2.7,7 m 0,0 C 4.99,8.68 4.29,10.35 3,13.41 M 5.7,7 C 5.15,8.31 4.6,9.61 3,13.41 m 0,0 C 1.9,11.06 0.8,8.72 0,7 m 3,6.41 C 2.16,11.61 1.32,9.81 0,7 M 0,7 C 0.72,5.32 1.44,3.64 3,0 M 0,7 C 1.18,4.25 2.36,1.5 3,0"
       stroke="#1e1e1e"
       stroke-width="1"
       fill="none"
       id="path340" />
  </g>
  <g
     stroke-linecap="round"
     transform="rotate(0.20760512,-13084.678,22499.913)"
     id="g348">
    <path
       d="M 3,0 5.7,7 3,13.41 0,7"
       stroke="none"
       stroke-width="0"
       fill="#1e1e1e"
       fill-rule="evenodd"
       id="path344" />
    <path
       d="M 3,0 C 3.69,1.8 4.38,3.59 5.7,7 M 3,0 c 0.85,2.21 1.7,4.41 2.7,7 m 0,0 C 5.07,8.5 4.44,10 3,13.41 M 5.7,7 C 4.94,8.81 4.18,10.62 3,13.41 m 0,0 C 2.23,11.77 1.47,10.13 0,7 m 3,6.41 C 2.09,11.46 1.17,9.5 0,7 M 0,7 C 0.62,5.56 1.24,4.11 3,0 M 0,7 C 1.02,4.63 2.03,2.26 3,0"
       stroke="#1e1e1e"
       stroke-width="1"
       fill="none"
       id="path346" />
  </g>
  <g
     stroke-linecap="round"
     id="g354"
     transform="translate(40,8)">
    <g
       transform="translate(70.347233,72.87944)"
       id="g352">
      <path
         d="m 0,0 c 1.17,1.36 3.81,6.81 7.02,8.17 3.2,1.36 9.14,1.3 12.21,0 3.07,-1.3 5.15,-6.49 6.18,-7.78 M 0,0 c 1.17,1.36 3.81,6.81 7.02,8.17 3.2,1.36 9.14,1.3 12.21,0 3.07,-1.3 5.15,-6.49 6.18,-7.78"
         stroke="#1e1e1e"
         stroke-width="2"
         fill="none"
         id="path350" />
    </g>
  </g>
  <mask
     id="mask356" />
  <g
     stroke-linecap="round"
     id="g362"
     transform="translate(40,8)">
    <g
       transform="translate(39.054217,77.670355)"
       id="g360">
      <path
         d="m 0,0 c -0.67,0.32 -2.51,1.93 -4,1.9 -1.49,-0.02 -3.73,-1.1 -4.92,-2.04 -1.19,-0.94 -1.85,-2.98 -2.22,-3.58 M 0,0 c -0.67,0.32 -2.51,1.93 -4,1.9 -1.49,-0.02 -3.73,-1.1 -4.92,-2.04 -1.19,-0.94 -1.85,-2.98 -2.22,-3.58"
         stroke="#1e1e1e"
         stroke-width="2"
         fill="none"
         id="path358" />
    </g>
  </g>
  <mask
     id="mask364" />
  <g
     stroke-linecap="round"
     id="g370"
     transform="translate(40,8)">
    <g
       transform="translate(120.27656,25.633025)"
       id="g368">
      <path
         d="m 0,0 c 0.32,-1.02 0.37,-4.45 1.95,-6.14 1.57,-1.7 4.74,-3.53 7.49,-4.05 2.75,-0.52 7.27,-0.7 8.99,0.9 1.72,1.6 1.87,5.62 1.35,8.69 -0.52,3.07 -2.35,8.29 -4.5,9.74 C 13.14,10.59 8.29,8.27 6.89,8.09 M 0,0 c 0.32,-1.02 0.37,-4.45 1.95,-6.14 1.57,-1.7 4.74,-3.53 7.49,-4.05 2.75,-0.52 7.27,-0.7 8.99,0.9 1.72,1.6 1.87,5.62 1.35,8.69 -0.52,3.07 -2.35,8.29 -4.5,9.74 C 13.14,10.59 8.29,8.27 6.89,8.09"
         stroke="#1e1e1e"
         stroke-width="2"
         fill="none"
         id="path366" />
    </g>
  </g>
  <mask
     id="mask372" />
  <g
     stroke-linecap="round"
     id="g378"
     transform="translate(40,8)">
    <g
       transform="translate(129.41561,57.154739)"
       id="g376">
      <path
         d="m 0,0 c 0.17,-1.83 -0.32,-8.33 0.99,-10.98 1.32,-2.65 3.79,-4.02 6.9,-4.92 3.11,-0.9 9.1,-2.35 11.75,-0.48 2.65,1.88 3.96,8.13 4.16,11.71 0.2,3.59 -1.79,7.2 -2.96,9.81 -1.16,2.62 -2.21,4.89 -4.03,5.89 -1.83,1.01 -5.75,0.11 -6.9,0.13 M 0,0 c 0.17,-1.83 -0.32,-8.33 0.99,-10.98 1.32,-2.65 3.79,-4.02 6.9,-4.92 3.11,-0.9 9.1,-2.35 11.75,-0.48 2.65,1.88 3.96,8.13 4.16,11.71 0.2,3.59 -1.79,7.2 -2.96,9.81 -1.16,2.62 -2.21,4.89 -4.03,5.89 -1.83,1.01 -5.75,0.11 -6.9,0.13"
         stroke="#1e1e1e"
         stroke-width="2"
         fill="none"
         id="path374" />
    </g>
  </g>
  <mask
     id="mask380" />
  <g
     stroke-linecap="round"
     id="g386"
     transform="translate(40,8)">
    <g
       transform="translate(133.38493,56.651488)"
       id="g384">
      <path
         d="m 0,0 c 0.17,-1.18 -0.32,-5.07 0.99,-7.06 1.32,-2 4.67,-4.27 6.9,-4.92 2.23,-0.65 5.01,0.19 6.49,1.03 1.48,0.84 1.86,2.51 2.38,3.99 0.53,1.48 0.73,2.86 0.75,4.89 0.02,2.02 -0.52,6.06 -0.63,7.27 M 0,0 c 0.17,-1.18 -0.32,-5.07 0.99,-7.06 1.32,-2 4.67,-4.27 6.9,-4.92 2.23,-0.65 5.01,0.19 6.49,1.03 1.48,0.84 1.86,2.51 2.38,3.99 0.53,1.48 0.73,2.86 0.75,4.89 0.02,2.02 -0.52,6.06 -0.63,7.27"
         stroke="#1e1e1e"
         stroke-width="2"
         fill="none"
         id="path382" />
    </g>
  </g>
  <mask
     id="mask388" />
  <g
     stroke-linecap="round"
     id="g394"
     transform="translate(40,8)">
    <g
       transform="translate(140.20924,57.385105)"
       id="g392">
      <path
         d="M 0,0 C 0.02,0.57 -0.38,2.51 0.09,3.4 0.56,4.28 1.82,5.38 2.84,5.32 3.86,5.25 5.57,4.65 6.21,3 6.86,1.34 7.15,-2.55 6.71,-4.61 6.26,-6.68 5.06,-8.4 3.54,-9.4 c -1.52,-1 -4.98,-1.02 -5.97,-1.23 M 0,0 C 0.02,0.57 -0.38,2.51 0.09,3.4 0.56,4.28 1.82,5.38 2.84,5.32 3.86,5.25 5.57,4.65 6.21,3 6.86,1.34 7.15,-2.55 6.71,-4.61 6.26,-6.68 5.06,-8.4 3.54,-9.4 c -1.52,-1 -4.98,-1.02 -5.97,-1.23"
         stroke="#1e1e1e"
         stroke-width="2"
         fill="none"
         id="path390" />
    </g>
  </g>
  <mask
     id="mask396" />
  <text
     xml:space="preserve"
     id="text2324"
     style="font-size:192px;line-height:1.4;font-family:'Noto Sans';-inkscape-font-specification:'Noto Sans';white-space:pre;shape-inside:url(#rect2326);display:inline;fill:#4d3a31;fill-opacity:1;stroke:#3f2e24;stroke-width:1.95695;stroke-dasharray:none;stroke-opacity:1"
     transform="matrix(2.0307075,0,0,2.0307075,-475.33671,-96.49358)"><tspan
       x="615.13086"
       y="243.60385"
       id="tspan3060"><tspan
         style="font-family:'Noto Serif';-inkscape-font-specification:'Noto Serif'"
         id="tspan3058">bera</tspan></tspan></text>
</svg>
