<svg version="1.1" xmlns="http://www.w3.org/2000/svg" viewBox="0 0 510.20800361019496 411.3105033896541" width="510.20800361019496" height="411.3105033896541" class="excalidraw-svg">
  <!-- svg-source:excalidraw -->
  
  <defs>
    <style class="style-fonts">
      @font-face {
        font-family: "Virgil";
        src: url("https://excalidraw.com/Virgil.woff2");
      }
      @font-face {
        font-family: "Cascadia";
        src: url("https://excalidraw.com/Cascadia.woff2");
      }
      @font-face {
        font-family: "Assistant";
        src: url("https://excalidraw.com/Assistant-Regular.woff2");
      }
    </style>
    
  </defs>
  <g stroke-linecap="round"><g transform="translate(148.88193320962807 84.86976154899054) rotate(0 106.27509086494524 123.50966578454097)" fill-rule="evenodd"><path d="M0 0 C1.03 3.91, 4.22 13.4, 6.21 23.49 C8.2 33.58, 8 48.17, 11.95 60.57 C15.89 72.96, 17.99 90.92, 29.88 97.86 C41.77 104.81, 66.75 102.83, 83.28 102.24 C99.82 101.66, 117.16 97.71, 129.1 94.35 C141.03 91, 147.82 84.95, 154.89 82.09 C161.97 79.24, 162 77.65, 171.56 77.23 C181.11 76.81, 202.41 78.21, 212.24 79.59 C222.06 80.96, 221.37 83.62, 230.51 85.48 C239.65 87.35, 255.04 86.29, 267.06 90.79 C279.09 95.29, 295.99 104.4, 302.66 112.46 C309.32 120.52, 304.89 132.22, 307.06 139.16 C309.23 146.1, 313.11 148.98, 315.68 154.08 C318.25 159.19, 320.14 163.15, 322.48 169.79 C324.82 176.42, 327.46 187.79, 329.74 193.9 C332.02 200, 334.23 201.84, 336.14 206.45 C338.05 211.05, 338.85 214.82, 341.19 221.53 C343.53 228.23, 349.14 238.95, 350.16 246.68 C351.18 254.41, 348.38 262.54, 347.31 267.9 C346.23 273.26, 343.91 273.69, 343.7 278.85 C343.5 284.02, 348.49 293.53, 346.06 298.9 C343.63 304.27, 345.07 308.47, 329.12 311.1 C313.18 313.72, 293.76 313.84, 250.4 314.66 C207.04 315.48, 116.85 316.56, 68.98 316 C21.11 315.43, -11.13 312.25, -36.81 311.25 C-62.5 310.26, -71.08 310.29, -85.15 310.01 C-99.22 309.73, -113.5 313.84, -121.25 309.58 C-128.99 305.32, -128.9 293.94, -131.63 284.44 C-134.35 274.95, -138.13 260.69, -137.61 252.6 C-137.1 244.52, -133.8 241.71, -128.55 235.94 C-123.3 230.16, -110.55 223.48, -106.12 217.95 C-101.68 212.41, -104.11 207.45, -101.93 202.74 C-99.74 198.02, -93.86 196.91, -92.99 189.65 C-92.12 182.39, -95.68 169.27, -96.69 159.18 C-97.69 149.09, -97.48 137.38, -99.04 129.11 C-100.61 120.84, -103.73 116.02, -106.09 109.54 C-108.45 103.05, -112.05 96.89, -113.19 90.2 C-114.33 83.51, -112.92 75.77, -112.92 69.38 C-112.92 63, -113.74 59.54, -113.19 51.88 C-112.64 44.22, -109.33 29.76, -109.62 23.44 C-109.91 17.12, -114.27 18.21, -114.93 13.96 C-115.59 9.71, -112.73 2.27, -113.57 -2.06 C-114.41 -6.38, -119.9 -8.06, -119.95 -11.97 C-120.01 -15.89, -115.15 -21.42, -113.91 -25.56 C-112.68 -29.7, -113.77 -32.26, -112.55 -36.81 C-111.33 -41.35, -110.86 -47.74, -106.6 -52.85 C-102.35 -57.96, -94.45 -64.78, -87 -67.47 C-79.55 -70.16, -72.24 -68.86, -61.9 -68.98 C-51.57 -69.09, -33.91 -69.14, -24.99 -68.15 C-16.07 -67.16, -10.48 -67.43, -8.38 -63.05 C-6.28 -58.68, -13.37 -48.9, -12.39 -41.92 C-11.41 -34.93, -4.57 -28.12, -2.51 -21.13 C-0.44 -14.15, -0.42 -3.52, 0 0" stroke="none" stroke-width="0" fill="#ffffff" fill-rule="evenodd"></path><path d="M0 0 C1.03 3.91, 4.22 13.4, 6.21 23.49 C8.2 33.58, 8 48.17, 11.95 60.57 C15.89 72.96, 17.99 90.92, 29.88 97.86 C41.77 104.81, 66.75 102.83, 83.28 102.24 C99.82 101.66, 117.16 97.71, 129.1 94.35 C141.03 91, 147.82 84.95, 154.89 82.09 C161.97 79.24, 162 77.65, 171.56 77.23 C181.11 76.81, 202.41 78.21, 212.24 79.59 C222.06 80.96, 221.37 83.62, 230.51 85.48 C239.65 87.35, 255.04 86.29, 267.06 90.79 C279.09 95.29, 295.99 104.4, 302.66 112.46 C309.32 120.52, 304.89 132.22, 307.06 139.16 C309.23 146.1, 313.11 148.98, 315.68 154.08 C318.25 159.19, 320.14 163.15, 322.48 169.79 C324.82 176.42, 327.46 187.79, 329.74 193.9 C332.02 200, 334.23 201.84, 336.14 206.45 C338.05 211.05, 338.85 214.82, 341.19 221.53 C343.53 228.23, 349.14 238.95, 350.16 246.68 C351.18 254.41, 348.38 262.54, 347.31 267.9 C346.23 273.26, 343.91 273.69, 343.7 278.85 C343.5 284.02, 348.49 293.53, 346.06 298.9 C343.63 304.27, 345.07 308.47, 329.12 311.1 C313.18 313.72, 293.76 313.84, 250.4 314.66 C207.04 315.48, 116.85 316.56, 68.98 316 C21.11 315.43, -11.13 312.25, -36.81 311.25 C-62.5 310.26, -71.08 310.29, -85.15 310.01 C-99.22 309.73, -113.5 313.84, -121.25 309.58 C-128.99 305.32, -128.9 293.94, -131.63 284.44 C-134.35 274.95, -138.13 260.69, -137.61 252.6 C-137.1 244.52, -133.8 241.71, -128.55 235.94 C-123.3 230.16, -110.55 223.48, -106.12 217.95 C-101.68 212.41, -104.11 207.45, -101.93 202.74 C-99.74 198.02, -93.86 196.91, -92.99 189.65 C-92.12 182.39, -95.68 169.27, -96.69 159.18 C-97.69 149.09, -97.48 137.38, -99.04 129.11 C-100.61 120.84, -103.73 116.02, -106.09 109.54 C-108.45 103.05, -112.05 96.89, -113.19 90.2 C-114.33 83.51, -112.92 75.77, -112.92 69.38 C-112.92 63, -113.74 59.54, -113.19 51.88 C-112.64 44.22, -109.33 29.76, -109.62 23.44 C-109.91 17.12, -114.27 18.21, -114.93 13.96 C-115.59 9.71, -112.73 2.27, -113.57 -2.06 C-114.41 -6.38, -119.9 -8.06, -119.95 -11.97 C-120.01 -15.89, -115.15 -21.42, -113.91 -25.56 C-112.68 -29.7, -113.77 -32.26, -112.55 -36.81 C-111.33 -41.35, -110.86 -47.74, -106.6 -52.85 C-102.35 -57.96, -94.45 -64.78, -87 -67.47 C-79.55 -70.16, -72.24 -68.86, -61.9 -68.98 C-51.57 -69.09, -33.91 -69.14, -24.99 -68.15 C-16.07 -67.16, -10.48 -67.43, -8.38 -63.05 C-6.28 -58.68, -13.37 -48.9, -12.39 -41.92 C-11.41 -34.93, -4.57 -28.12, -2.51 -21.13 C-0.44 -14.15, -0.42 -3.52, 0 0 M0 0 C1.03 3.91, 4.22 13.4, 6.21 23.49 C8.2 33.58, 8 48.17, 11.95 60.57 C15.89 72.96, 17.99 90.92, 29.88 97.86 C41.77 104.81, 66.75 102.83, 83.28 102.24 C99.82 101.66, 117.16 97.71, 129.1 94.35 C141.03 91, 147.82 84.95, 154.89 82.09 C161.97 79.24, 162 77.65, 171.56 77.23 C181.11 76.81, 202.41 78.21, 212.24 79.59 C222.06 80.96, 221.37 83.62, 230.51 85.48 C239.65 87.35, 255.04 86.29, 267.06 90.79 C279.09 95.29, 295.99 104.4, 302.66 112.46 C309.32 120.52, 304.89 132.22, 307.06 139.16 C309.23 146.1, 313.11 148.98, 315.68 154.08 C318.25 159.19, 320.14 163.15, 322.48 169.79 C324.82 176.42, 327.46 187.79, 329.74 193.9 C332.02 200, 334.23 201.84, 336.14 206.45 C338.05 211.05, 338.85 214.82, 341.19 221.53 C343.53 228.23, 349.14 238.95, 350.16 246.68 C351.18 254.41, 348.38 262.54, 347.31 267.9 C346.23 273.26, 343.91 273.69, 343.7 278.85 C343.5 284.02, 348.49 293.53, 346.06 298.9 C343.63 304.27, 345.07 308.47, 329.12 311.1 C313.18 313.72, 293.76 313.84, 250.4 314.66 C207.04 315.48, 116.85 316.56, 68.98 316 C21.11 315.43, -11.13 312.25, -36.81 311.25 C-62.5 310.26, -71.08 310.29, -85.15 310.01 C-99.22 309.73, -113.5 313.84, -121.25 309.58 C-128.99 305.32, -128.9 293.94, -131.63 284.44 C-134.35 274.95, -138.13 260.69, -137.61 252.6 C-137.1 244.52, -133.8 241.71, -128.55 235.94 C-123.3 230.16, -110.55 223.48, -106.12 217.95 C-101.68 212.41, -104.11 207.45, -101.93 202.74 C-99.74 198.02, -93.86 196.91, -92.99 189.65 C-92.12 182.39, -95.68 169.27, -96.69 159.18 C-97.69 149.09, -97.48 137.38, -99.04 129.11 C-100.61 120.84, -103.73 116.02, -106.09 109.54 C-108.45 103.05, -112.05 96.89, -113.19 90.2 C-114.33 83.51, -112.92 75.77, -112.92 69.38 C-112.92 63, -113.74 59.54, -113.19 51.88 C-112.64 44.22, -109.33 29.76, -109.62 23.44 C-109.91 17.12, -114.27 18.21, -114.93 13.96 C-115.59 9.71, -112.73 2.27, -113.57 -2.06 C-114.41 -6.38, -119.9 -8.06, -119.95 -11.97 C-120.01 -15.89, -115.15 -21.42, -113.91 -25.56 C-112.68 -29.7, -113.77 -32.26, -112.55 -36.81 C-111.33 -41.35, -110.86 -47.74, -106.6 -52.85 C-102.35 -57.96, -94.45 -64.78, -87 -67.47 C-79.55 -70.16, -72.24 -68.86, -61.9 -68.98 C-51.57 -69.09, -33.91 -69.14, -24.99 -68.15 C-16.07 -67.16, -10.48 -67.43, -8.38 -63.05 C-6.28 -58.68, -13.37 -48.9, -12.39 -41.92 C-11.41 -34.93, -4.57 -28.12, -2.51 -21.13 C-0.44 -14.15, -0.42 -3.52, 0 0" stroke="#ffffff" stroke-width="2" fill="none"></path></g></g><mask></mask><g stroke-linecap="round"><g transform="translate(66.58427511420575 45.188860206841866) rotate(0 12.60934665928221 -1.178317397274128)" fill-rule="evenodd"><path d="M0 0 C1.01 0.94, 3.17 4.55, 6.04 5.62 C8.91 6.69, 14.02 6.84, 17.22 6.42 C20.41 5.99, 24.45 5.09, 25.22 3.08 C25.99 1.07, 23.84 -3.66, 21.82 -5.64 C19.8 -7.61, 16.23 -8.75, 13.13 -8.77 C10.02 -8.8, 5.38 -7.27, 3.19 -5.81 C1 -4.35, 0.53 -0.97, 0 0" stroke="none" stroke-width="0" fill="#ffffff" fill-rule="evenodd"></path><path d="M0 0 C1.01 0.94, 3.17 4.55, 6.04 5.62 C8.91 6.69, 14.02 6.84, 17.22 6.42 C20.41 5.99, 24.45 5.09, 25.22 3.08 C25.99 1.07, 23.84 -3.66, 21.82 -5.64 C19.8 -7.61, 16.23 -8.75, 13.13 -8.77 C10.02 -8.8, 5.38 -7.27, 3.19 -5.81 C1 -4.35, 0.53 -0.97, 0 0 M0 0 C1.01 0.94, 3.17 4.55, 6.04 5.62 C8.91 6.69, 14.02 6.84, 17.22 6.42 C20.41 5.99, 24.45 5.09, 25.22 3.08 C25.99 1.07, 23.84 -3.66, 21.82 -5.64 C19.8 -7.61, 16.23 -8.75, 13.13 -8.77 C10.02 -8.8, 5.38 -7.27, 3.19 -5.81 C1 -4.35, 0.53 -0.97, 0 0" stroke="#1e1e1e" stroke-width="0.5" fill="none"></path></g></g><mask></mask><g stroke-linecap="round"><g transform="translate(36.60101210336222 48.20993648012069) rotate(0 8.217582787909464 -1.9845791462936972)" fill-rule="evenodd"><path d="M0 0 C0.52 0.99, 0.97 5.33, 3.1 5.95 C5.24 6.57, 10.57 5.2, 12.8 3.72 C15.02 2.23, 16.53 -0.67, 16.44 -2.94 C16.34 -5.21, 14.54 -9.19, 12.25 -9.92 C9.97 -10.65, 4.76 -8.98, 2.72 -7.33 C0.68 -5.67, 0.45 -1.22, 0 0" stroke="none" stroke-width="0" fill="#ffffff" fill-rule="evenodd"></path><path d="M0 0 C0.52 0.99, 0.97 5.33, 3.1 5.95 C5.24 6.57, 10.57 5.2, 12.8 3.72 C15.02 2.23, 16.53 -0.67, 16.44 -2.94 C16.34 -5.21, 14.54 -9.19, 12.25 -9.92 C9.97 -10.65, 4.76 -8.98, 2.72 -7.33 C0.68 -5.67, 0.45 -1.22, 0 0 M0 0 C0.52 0.99, 0.97 5.33, 3.1 5.95 C5.24 6.57, 10.57 5.2, 12.8 3.72 C15.02 2.23, 16.53 -0.67, 16.44 -2.94 C16.34 -5.21, 14.54 -9.19, 12.25 -9.92 C9.97 -10.65, 4.76 -8.98, 2.72 -7.33 C0.68 -5.67, 0.45 -1.22, 0 0" stroke="#1e1e1e" stroke-width="0.5" fill="none"></path></g></g><mask></mask><g stroke-linecap="round"><g transform="translate(49.968411253975205 81.94692083703632) rotate(0 -0.813660125688159 -3.379790170784986)" fill-rule="evenodd"><path d="M0 0 C1.14 -0.37, 6.66 -1.1, 6.85 -2.23 C7.04 -3.36, 3.71 -6.34, 1.16 -6.76 C-1.4 -7.18, -8.28 -5.86, -8.48 -4.73 C-8.67 -3.6, -1.41 -0.79, 0 0" stroke="none" stroke-width="0" fill="#1e1e1e" fill-rule="evenodd"></path><path d="M0 0 C1.14 -0.37, 6.66 -1.1, 6.85 -2.23 C7.04 -3.36, 3.71 -6.34, 1.16 -6.76 C-1.4 -7.18, -8.28 -5.86, -8.48 -4.73 C-8.67 -3.6, -1.41 -0.79, 0 0 M0 0 C1.14 -0.37, 6.66 -1.1, 6.85 -2.23 C7.04 -3.36, 3.71 -6.34, 1.16 -6.76 C-1.4 -7.18, -8.28 -5.86, -8.48 -4.73 C-8.67 -3.6, -1.41 -0.79, 0 0" stroke="#1e1e1e" stroke-width="0.5" fill="none"></path></g></g><mask></mask><g stroke-linecap="round"><g transform="translate(326.62012074071947 332.019240055476) rotate(0 -13.483425206049901 24.050891864116807)" fill-rule="evenodd"><path d="M0 0 C-2.01 0.25, -6.97 -0.5, -12.09 1.51 C-17.2 3.52, -25.73 7.98, -30.7 12.06 C-35.67 16.15, -40.08 21.66, -41.9 26 C-43.71 30.35, -43.61 34.8, -41.57 38.12 C-39.54 41.43, -34.9 44.21, -29.69 45.88 C-24.47 47.54, -16.01 48.14, -10.28 48.1 C-4.55 48.06, 0.49 46.65, 4.7 45.63 C8.9 44.61, 13.91 45.22, 14.93 41.97 C15.95 38.73, 13.31 33.15, 10.83 26.15 C8.34 19.16, 1.8 4.36, 0 0" stroke="none" stroke-width="0" fill="#d2bab0" fill-rule="evenodd"></path><path d="M0 0 C-2.01 0.25, -6.97 -0.5, -12.09 1.51 C-17.2 3.52, -25.73 7.98, -30.7 12.06 C-35.67 16.15, -40.08 21.66, -41.9 26 C-43.71 30.35, -43.61 34.8, -41.57 38.12 C-39.54 41.43, -34.9 44.21, -29.69 45.88 C-24.47 47.54, -16.01 48.14, -10.28 48.1 C-4.55 48.06, 0.49 46.65, 4.7 45.63 C8.9 44.61, 13.91 45.22, 14.93 41.97 C15.95 38.73, 13.31 33.15, 10.83 26.15 C8.34 19.16, 1.8 4.36, 0 0 M0 0 C-2.01 0.25, -6.97 -0.5, -12.09 1.51 C-17.2 3.52, -25.73 7.98, -30.7 12.06 C-35.67 16.15, -40.08 21.66, -41.9 26 C-43.71 30.35, -43.61 34.8, -41.57 38.12 C-39.54 41.43, -34.9 44.21, -29.69 45.88 C-24.47 47.54, -16.01 48.14, -10.28 48.1 C-4.55 48.06, 0.49 46.65, 4.7 45.63 C8.9 44.61, 13.91 45.22, 14.93 41.97 C15.95 38.73, 13.31 33.15, 10.83 26.15 C8.34 19.16, 1.8 4.36, 0 0" stroke="transparent" stroke-width="0.5" fill="none"></path></g></g><mask></mask><g stroke-linecap="round"><g transform="translate(122.00097054093624 332.1979310707247) rotate(0 22.93315382586968 5.4124974405459625)" fill-rule="evenodd"><path d="M0 0 C0.92 2.85, 3.32 11.23, 5.53 17.11 C7.73 22.99, 9.38 33.54, 13.23 35.27 C17.08 37, 23.57 32, 28.61 27.5 C33.65 23.01, 40.59 14.55, 43.46 8.32 C46.34 2.09, 45.58 -4.4, 45.87 -9.86 C46.16 -15.32, 47.43 -22.27, 45.21 -24.44 C42.99 -26.61, 37.42 -24.61, 32.54 -22.88 C27.65 -21.16, 20.67 -16.85, 15.92 -14.09 C11.17 -11.34, 6.03 -7.64, 4.05 -6.35" stroke="none" stroke-width="0" fill="#d2bab0" fill-rule="evenodd"></path><path d="M0 0 C0.92 2.85, 3.32 11.23, 5.53 17.11 C7.73 22.99, 9.38 33.54, 13.23 35.27 C17.08 37, 23.57 32, 28.61 27.5 C33.65 23.01, 40.59 14.55, 43.46 8.32 C46.34 2.09, 45.58 -4.4, 45.87 -9.86 C46.16 -15.32, 47.43 -22.27, 45.21 -24.44 C42.99 -26.61, 37.42 -24.61, 32.54 -22.88 C27.65 -21.16, 20.67 -16.85, 15.92 -14.09 C11.17 -11.34, 6.03 -7.64, 4.05 -6.35 M0 0 C0.92 2.85, 3.32 11.23, 5.53 17.11 C7.73 22.99, 9.38 33.54, 13.23 35.27 C17.08 37, 23.57 32, 28.61 27.5 C33.65 23.01, 40.59 14.55, 43.46 8.32 C46.34 2.09, 45.58 -4.4, 45.87 -9.86 C46.16 -15.32, 47.43 -22.27, 45.21 -24.44 C42.99 -26.61, 37.42 -24.61, 32.54 -22.88 C27.65 -21.16, 20.67 -16.85, 15.92 -14.09 C11.17 -11.34, 6.03 -7.64, 4.05 -6.35" stroke="#1e1e1e" stroke-width="0.5" fill="none"></path></g></g><mask></mask><g stroke-linecap="round"><g transform="translate(386.05249662588665 206.3956595592984) rotate(0 11.70692878061493 31.01387330059046)" fill-rule="evenodd"><path d="M0 0 C-0.65 2.29, -2.57 8.21, -3.91 13.72 C-5.24 19.23, -6.37 26.75, -8.01 33.07 C-9.65 39.4, -12.17 45.99, -13.76 51.67 C-15.34 57.34, -16.9 63.17, -17.51 67.11 C-18.13 71.06, -18.61 73.23, -17.46 75.33 C-16.3 77.43, -13.69 79.64, -10.61 79.73 C-7.52 79.83, -2.44 78.26, 1.06 75.9 C4.57 73.54, 7.9 69.36, 10.44 65.58 C12.97 61.8, 14.05 57.04, 16.26 53.22 C18.47 49.41, 21.16 45.82, 23.72 42.69 C26.28 39.56, 29.41 37.13, 31.63 34.44 C33.85 31.74, 35.52 29.94, 37.04 26.53 C38.56 23.11, 40.11 17.92, 40.76 13.93 C41.4 9.93, 42.71 6.89, 40.93 2.56 C39.14 -1.77, 33.88 -8.69, 30.04 -12.07 C26.19 -15.45, 22.02 -17.49, 17.85 -17.7 C13.69 -17.92, 8.04 -16.31, 5.07 -13.36 C2.09 -10.41, 0.84 -2.23, 0 0" stroke="none" stroke-width="0" fill="#d2bab0" fill-rule="evenodd"></path><path d="M0 0 C-0.65 2.29, -2.57 8.21, -3.91 13.72 C-5.24 19.23, -6.37 26.75, -8.01 33.07 C-9.65 39.4, -12.17 45.99, -13.76 51.67 C-15.34 57.34, -16.9 63.17, -17.51 67.11 C-18.13 71.06, -18.61 73.23, -17.46 75.33 C-16.3 77.43, -13.69 79.64, -10.61 79.73 C-7.52 79.83, -2.44 78.26, 1.06 75.9 C4.57 73.54, 7.9 69.36, 10.44 65.58 C12.97 61.8, 14.05 57.04, 16.26 53.22 C18.47 49.41, 21.16 45.82, 23.72 42.69 C26.28 39.56, 29.41 37.13, 31.63 34.44 C33.85 31.74, 35.52 29.94, 37.04 26.53 C38.56 23.11, 40.11 17.92, 40.76 13.93 C41.4 9.93, 42.71 6.89, 40.93 2.56 C39.14 -1.77, 33.88 -8.69, 30.04 -12.07 C26.19 -15.45, 22.02 -17.49, 17.85 -17.7 C13.69 -17.92, 8.04 -16.31, 5.07 -13.36 C2.09 -10.41, 0.84 -2.23, 0 0 M0 0 C-0.65 2.29, -2.57 8.21, -3.91 13.72 C-5.24 19.23, -6.37 26.75, -8.01 33.07 C-9.65 39.4, -12.17 45.99, -13.76 51.67 C-15.34 57.34, -16.9 63.17, -17.51 67.11 C-18.13 71.06, -18.61 73.23, -17.46 75.33 C-16.3 77.43, -13.69 79.64, -10.61 79.73 C-7.52 79.83, -2.44 78.26, 1.06 75.9 C4.57 73.54, 7.9 69.36, 10.44 65.58 C12.97 61.8, 14.05 57.04, 16.26 53.22 C18.47 49.41, 21.16 45.82, 23.72 42.69 C26.28 39.56, 29.41 37.13, 31.63 34.44 C33.85 31.74, 35.52 29.94, 37.04 26.53 C38.56 23.11, 40.11 17.92, 40.76 13.93 C41.4 9.93, 42.71 6.89, 40.93 2.56 C39.14 -1.77, 33.88 -8.69, 30.04 -12.07 C26.19 -15.45, 22.02 -17.49, 17.85 -17.7 C13.69 -17.92, 8.04 -16.31, 5.07 -13.36 C2.09 -10.41, 0.84 -2.23, 0 0" stroke="#1e1e1e" stroke-width="0.5" fill="none"></path></g></g><mask></mask><g stroke-linecap="round"><g transform="translate(53.5549169497059 190.2274256040444) rotate(0 39.48059695631804 -88.43317532395179)" fill-rule="evenodd"><path d="M0 0 C6.21 -3.78, 26.8 -14.24, 37.24 -22.65 C47.68 -31.06, 54.45 -37.11, 62.64 -50.46 C70.83 -63.81, 80.64 -90.55, 86.38 -102.75 C92.12 -114.95, 95.05 -116.35, 97.06 -123.65 C99.07 -130.94, 100.11 -141.96, 98.44 -146.51 C96.78 -151.06, 88.99 -148.68, 87.05 -150.96 C85.1 -153.24, 87.34 -156.22, 86.8 -160.19 C86.25 -164.15, 87.15 -172.16, 83.79 -174.74 C80.43 -177.32, 75.63 -174.76, 66.63 -175.66 C57.63 -176.57, 40.19 -180.85, 29.78 -180.15 C19.37 -179.45, 9.65 -173.63, 4.18 -171.46 C-1.3 -169.3, -4.77 -167.06, -3.07 -167.16 C-1.36 -167.26, 7.49 -172.38, 14.41 -172.06 C21.32 -171.74, 31.21 -169.16, 38.41 -165.25 C45.61 -161.33, 55.25 -156.3, 57.63 -148.59 C60.01 -140.88, 57.02 -127.52, 52.71 -119.02 C48.39 -110.51, 37.76 -101.5, 31.75 -97.54 C25.74 -93.58, 21.46 -93.24, 16.63 -95.26 C11.79 -97.27, 7.11 -107.81, 2.74 -109.62 C-1.63 -111.43, -6.06 -108.85, -9.6 -106.11 C-13.14 -103.36, -17.43 -97.29, -18.5 -93.14 C-19.58 -88.99, -16.02 -89.27, -16.07 -81.21 C-16.13 -73.16, -18.27 -55.29, -18.83 -44.81 C-19.4 -34.34, -20.69 -26.39, -19.48 -18.37 C-18.27 -10.35, -14.82 0.22, -11.57 3.28 C-8.32 6.35, -1.93 0.55, 0 0" stroke="none" stroke-width="0" fill="#d2bab0" fill-rule="evenodd"></path><path d="M0 0 C6.21 -3.78, 26.8 -14.24, 37.24 -22.65 C47.68 -31.06, 54.45 -37.11, 62.64 -50.46 C70.83 -63.81, 80.64 -90.55, 86.38 -102.75 C92.12 -114.95, 95.05 -116.35, 97.06 -123.65 C99.07 -130.94, 100.11 -141.96, 98.44 -146.51 C96.78 -151.06, 88.99 -148.68, 87.05 -150.96 C85.1 -153.24, 87.34 -156.22, 86.8 -160.19 C86.25 -164.15, 87.15 -172.16, 83.79 -174.74 C80.43 -177.32, 75.63 -174.76, 66.63 -175.66 C57.63 -176.57, 40.19 -180.85, 29.78 -180.15 C19.37 -179.45, 9.65 -173.63, 4.18 -171.46 C-1.3 -169.3, -4.77 -167.06, -3.07 -167.16 C-1.36 -167.26, 7.49 -172.38, 14.41 -172.06 C21.32 -171.74, 31.21 -169.16, 38.41 -165.25 C45.61 -161.33, 55.25 -156.3, 57.63 -148.59 C60.01 -140.88, 57.02 -127.52, 52.71 -119.02 C48.39 -110.51, 37.76 -101.5, 31.75 -97.54 C25.74 -93.58, 21.46 -93.24, 16.63 -95.26 C11.79 -97.27, 7.11 -107.81, 2.74 -109.62 C-1.63 -111.43, -6.06 -108.85, -9.6 -106.11 C-13.14 -103.36, -17.43 -97.29, -18.5 -93.14 C-19.58 -88.99, -16.02 -89.27, -16.07 -81.21 C-16.13 -73.16, -18.27 -55.29, -18.83 -44.81 C-19.4 -34.34, -20.69 -26.39, -19.48 -18.37 C-18.27 -10.35, -14.82 0.22, -11.57 3.28 C-8.32 6.35, -1.93 0.55, 0 0 M0 0 C6.21 -3.78, 26.8 -14.24, 37.24 -22.65 C47.68 -31.06, 54.45 -37.11, 62.64 -50.46 C70.83 -63.81, 80.64 -90.55, 86.38 -102.75 C92.12 -114.95, 95.05 -116.35, 97.06 -123.65 C99.07 -130.94, 100.11 -141.96, 98.44 -146.51 C96.78 -151.06, 88.99 -148.68, 87.05 -150.96 C85.1 -153.24, 87.34 -156.22, 86.8 -160.19 C86.25 -164.15, 87.15 -172.16, 83.79 -174.74 C80.43 -177.32, 75.63 -174.76, 66.63 -175.66 C57.63 -176.57, 40.19 -180.85, 29.78 -180.15 C19.37 -179.45, 9.65 -173.63, 4.18 -171.46 C-1.3 -169.3, -4.77 -167.06, -3.07 -167.16 C-1.36 -167.26, 7.49 -172.38, 14.41 -172.06 C21.32 -171.74, 31.21 -169.16, 38.41 -165.25 C45.61 -161.33, 55.25 -156.3, 57.63 -148.59 C60.01 -140.88, 57.02 -127.52, 52.71 -119.02 C48.39 -110.51, 37.76 -101.5, 31.75 -97.54 C25.74 -93.58, 21.46 -93.24, 16.63 -95.26 C11.79 -97.27, 7.11 -107.81, 2.74 -109.62 C-1.63 -111.43, -6.06 -108.85, -9.6 -106.11 C-13.14 -103.36, -17.43 -97.29, -18.5 -93.14 C-19.58 -88.99, -16.02 -89.27, -16.07 -81.21 C-16.13 -73.16, -18.27 -55.29, -18.83 -44.81 C-19.4 -34.34, -20.69 -26.39, -19.48 -18.37 C-18.27 -10.35, -14.82 0.22, -11.57 3.28 C-8.32 6.35, -1.93 0.55, 0 0" stroke="#1e1e1e" stroke-width="0.5" fill="none"></path></g></g><mask></mask><g stroke-linecap="round"><g transform="translate(42.790110367681905 195.40473625903502) rotate(0 212.86844177246093 38.95810546874998)"><path d="M0 0 C1.12 4.23, 5.09 15.77, 6.71 25.39 C8.34 35.01, 8.83 48.38, 9.74 57.73 C10.65 67.07, 13.06 76.12, 12.2 81.46 C11.33 86.8, 6.29 87.01, 4.54 89.78 C2.79 92.56, 2.66 94.91, 1.7 98.1 C0.74 101.3, 1.84 105.37, -1.23 108.98 C-4.3 112.59, -11.68 115.37, -16.74 119.76 C-21.8 124.15, -29.18 129.81, -31.58 135.31 C-33.98 140.81, -32.24 146.1, -31.16 152.76 C-30.07 159.42, -26.92 168.13, -25.06 175.26 C-23.2 182.4, -22.14 191.28, -20 195.55 C-17.86 199.82, -19.25 200, -12.2 200.89 C-5.15 201.78, 3.86 200.55, 22.32 200.89 C40.77 201.23, 71.94 202.1, 98.53 202.92 C125.11 203.74, 155.74 205.43, 181.83 205.81 C207.92 206.18, 227.74 205.37, 255.06 205.19 C282.39 205.01, 317.26 205.26, 345.79 204.72 C374.32 204.18, 408.87 203.66, 426.26 201.93 C443.65 200.2, 445.76 198.06, 450.13 194.32 C454.51 190.57, 452.67 183.79, 452.5 179.47 C452.32 175.15, 448.56 172.57, 449.09 168.41 C449.62 164.25, 454.29 158.61, 455.66 154.51 C457.03 150.41, 457.68 148.87, 457.32 143.82 C456.96 138.78, 455.22 129.64, 453.49 124.25 C451.76 118.86, 448.79 116.24, 446.92 111.48 C445.04 106.72, 444.29 100.54, 442.24 95.69 C440.19 90.85, 436.52 87.3, 434.63 82.41 C432.73 77.51, 432.73 72.11, 430.89 66.33 C429.05 60.56, 426.43 53.87, 423.61 47.75 C420.79 41.64, 415.94 35.94, 413.96 29.64 C411.99 23.35, 413.3 15.14, 411.74 9.98 C410.18 4.81, 410.42 3.34, 404.6 -1.32 C398.79 -5.99, 384.16 -14.55, 376.85 -18.01 C369.54 -21.47, 365.99 -21.08, 360.73 -22.08 C355.47 -23.08, 350.21 -23.57, 345.27 -24.02 C340.33 -24.47, 336.3 -23.41, 331.09 -24.77 C325.87 -26.14, 320.89 -30.72, 313.96 -32.22 C307.03 -33.73, 297.94 -34.37, 289.48 -33.79 C281.02 -33.21, 271.19 -31.32, 263.2 -28.74 C255.21 -26.16, 249.81 -21.23, 241.54 -18.3 C233.28 -15.37, 222.31 -12.77, 213.6 -11.16 C204.89 -9.54, 198.16 -9.08, 189.3 -8.6 C180.44 -8.13, 169.06 -7.85, 160.46 -8.32 C151.86 -8.79, 143.28 -8.9, 137.72 -11.44 C132.17 -13.99, 130.08 -18.29, 127.13 -23.59 C124.18 -28.9, 121.77 -37.19, 120.04 -43.26 C118.3 -49.34, 117.73 -53.43, 116.73 -60.04 C115.73 -66.66, 115.27 -75.45, 114.03 -82.93 C112.8 -90.41, 110.46 -98.79, 109.31 -104.91 C108.15 -111.04, 107.6 -115.83, 107.08 -119.66 C106.57 -123.49, 106.38 -126.52, 106.23 -127.89 M0 0 C1.12 4.23, 5.09 15.77, 6.71 25.39 C8.34 35.01, 8.83 48.38, 9.74 57.73 C10.65 67.07, 13.06 76.12, 12.2 81.46 C11.33 86.8, 6.29 87.01, 4.54 89.78 C2.79 92.56, 2.66 94.91, 1.7 98.1 C0.74 101.3, 1.84 105.37, -1.23 108.98 C-4.3 112.59, -11.68 115.37, -16.74 119.76 C-21.8 124.15, -29.18 129.81, -31.58 135.31 C-33.98 140.81, -32.24 146.1, -31.16 152.76 C-30.07 159.42, -26.92 168.13, -25.06 175.26 C-23.2 182.4, -22.14 191.28, -20 195.55 C-17.86 199.82, -19.25 200, -12.2 200.89 C-5.15 201.78, 3.86 200.55, 22.32 200.89 C40.77 201.23, 71.94 202.1, 98.53 202.92 C125.11 203.74, 155.74 205.43, 181.83 205.81 C207.92 206.18, 227.74 205.37, 255.06 205.19 C282.39 205.01, 317.26 205.26, 345.79 204.72 C374.32 204.18, 408.87 203.66, 426.26 201.93 C443.65 200.2, 445.76 198.06, 450.13 194.32 C454.51 190.57, 452.67 183.79, 452.5 179.47 C452.32 175.15, 448.56 172.57, 449.09 168.41 C449.62 164.25, 454.29 158.61, 455.66 154.51 C457.03 150.41, 457.68 148.87, 457.32 143.82 C456.96 138.78, 455.22 129.64, 453.49 124.25 C451.76 118.86, 448.79 116.24, 446.92 111.48 C445.04 106.72, 444.29 100.54, 442.24 95.69 C440.19 90.85, 436.52 87.3, 434.63 82.41 C432.73 77.51, 432.73 72.11, 430.89 66.33 C429.05 60.56, 426.43 53.87, 423.61 47.75 C420.79 41.64, 415.94 35.94, 413.96 29.64 C411.99 23.35, 413.3 15.14, 411.74 9.98 C410.18 4.81, 410.42 3.34, 404.6 -1.32 C398.79 -5.99, 384.16 -14.55, 376.85 -18.01 C369.54 -21.47, 365.99 -21.08, 360.73 -22.08 C355.47 -23.08, 350.21 -23.57, 345.27 -24.02 C340.33 -24.47, 336.3 -23.41, 331.09 -24.77 C325.87 -26.14, 320.89 -30.72, 313.96 -32.22 C307.03 -33.73, 297.94 -34.37, 289.48 -33.79 C281.02 -33.21, 271.19 -31.32, 263.2 -28.74 C255.21 -26.16, 249.81 -21.23, 241.54 -18.3 C233.28 -15.37, 222.31 -12.77, 213.6 -11.16 C204.89 -9.54, 198.16 -9.08, 189.3 -8.6 C180.44 -8.13, 169.06 -7.85, 160.46 -8.32 C151.86 -8.79, 143.28 -8.9, 137.72 -11.44 C132.17 -13.99, 130.08 -18.29, 127.13 -23.59 C124.18 -28.9, 121.77 -37.19, 120.04 -43.26 C118.3 -49.34, 117.73 -53.43, 116.73 -60.04 C115.73 -66.66, 115.27 -75.45, 114.03 -82.93 C112.8 -90.41, 110.46 -98.79, 109.31 -104.91 C108.15 -111.04, 107.6 -115.83, 107.08 -119.66 C106.57 -123.49, 106.38 -126.52, 106.23 -127.89" stroke="#1e1e1e" stroke-width="2" fill="none"></path></g></g><mask></mask><g stroke-linecap="round"><g transform="translate(149.4888245987496 67.23076164965988) rotate(0 -56.97935388156958 -28.36754150390624)"><path d="M0 0 C0.66 -2.28, 3.88 -9.45, 3.98 -13.68 C4.08 -17.92, 1.91 -23.08, 0.62 -25.39 C-0.67 -27.69, -2.19 -27.1, -3.77 -27.52 C-5.36 -27.93, -7.79 -26.71, -8.86 -27.87 C-9.93 -29.04, -10 -32.82, -10.21 -34.53 C-10.41 -36.25, -10.24 -35.91, -10.09 -38.16 C-9.94 -40.41, -8.36 -45.69, -9.3 -48.05 C-10.23 -50.41, -13.66 -51.72, -15.71 -52.31 C-17.75 -52.91, -19.61 -51.54, -21.55 -51.61 C-23.5 -51.68, -20.81 -51.86, -27.36 -52.71 C-33.92 -53.57, -52.75 -56.43, -60.89 -56.74 C-69.03 -57.04, -70.07 -56.25, -76.2 -54.51 C-82.33 -52.77, -91.84 -50.06, -97.67 -46.29 C-103.5 -42.51, -108.59 -36.85, -111.19 -31.87 C-113.79 -26.88, -112.15 -21.39, -113.27 -16.36 C-114.39 -11.33, -117.16 -4.14, -117.94 -1.7 M0 0 C0.66 -2.28, 3.88 -9.45, 3.98 -13.68 C4.08 -17.92, 1.91 -23.08, 0.62 -25.39 C-0.67 -27.69, -2.19 -27.1, -3.77 -27.52 C-5.36 -27.93, -7.79 -26.71, -8.86 -27.87 C-9.93 -29.04, -10 -32.82, -10.21 -34.53 C-10.41 -36.25, -10.24 -35.91, -10.09 -38.16 C-9.94 -40.41, -8.36 -45.69, -9.3 -48.05 C-10.23 -50.41, -13.66 -51.72, -15.71 -52.31 C-17.75 -52.91, -19.61 -51.54, -21.55 -51.61 C-23.5 -51.68, -20.81 -51.86, -27.36 -52.71 C-33.92 -53.57, -52.75 -56.43, -60.89 -56.74 C-69.03 -57.04, -70.07 -56.25, -76.2 -54.51 C-82.33 -52.77, -91.84 -50.06, -97.67 -46.29 C-103.5 -42.51, -108.59 -36.85, -111.19 -31.87 C-113.79 -26.88, -112.15 -21.39, -113.27 -16.36 C-114.39 -11.33, -117.16 -4.14, -117.94 -1.7" stroke="#1e1e1e" stroke-width="2" fill="none"></path></g></g><mask></mask><g stroke-linecap="round"><g transform="translate(31.727085465338064 65.15048821216016) rotate(0 56.591571044921864 64.79616699218752)"><path d="M0 0 C-0.6 1.51, -3.84 5.78, -3.59 9.03 C-3.35 12.28, 0.77 15.48, 1.47 19.53 C2.16 23.58, -0.1 29.96, 0.57 33.33 C1.24 36.7, 4.97 34.33, 5.48 39.76 C6 45.19, 3.99 54.58, 3.64 65.91 C3.29 77.23, 2.88 98.5, 3.36 107.7 C3.84 116.91, 4.81 117.48, 6.52 121.13 C8.24 124.78, 6.7 131.54, 13.66 129.59 C20.63 127.65, 38.06 116.6, 48.32 109.45 C58.58 102.3, 68.25 94.72, 75.22 86.71 C82.19 78.7, 85.74 70.03, 90.16 61.42 C94.58 52.8, 98.28 42.59, 101.74 35.03 C105.2 27.48, 108.41 20.76, 110.91 16.07 C113.42 11.39, 115.8 8.43, 116.78 6.9 M0 0 C-0.6 1.51, -3.84 5.78, -3.59 9.03 C-3.35 12.28, 0.77 15.48, 1.47 19.53 C2.16 23.58, -0.1 29.96, 0.57 33.33 C1.24 36.7, 4.97 34.33, 5.48 39.76 C6 45.19, 3.99 54.58, 3.64 65.91 C3.29 77.23, 2.88 98.5, 3.36 107.7 C3.84 116.91, 4.81 117.48, 6.52 121.13 C8.24 124.78, 6.7 131.54, 13.66 129.59 C20.63 127.65, 38.06 116.6, 48.32 109.45 C58.58 102.3, 68.25 94.72, 75.22 86.71 C82.19 78.7, 85.74 70.03, 90.16 61.42 C94.58 52.8, 98.28 42.59, 101.74 35.03 C105.2 27.48, 108.41 20.76, 110.91 16.07 C113.42 11.39, 115.8 8.43, 116.78 6.9" stroke="#1e1e1e" stroke-width="2" fill="none"></path></g></g><mask></mask><g stroke-linecap="round"><g transform="translate(482.28481251611936 292.279931571535) rotate(0 -99.11796874999999 -52.35877722129294)"><path d="M0 0 C-2.05 2.53, -2.55 10.84, -12.29 15.18 C-22.03 19.51, -44.42 24.81, -58.44 26 C-72.45 27.2, -84.79 24.33, -96.4 22.36 C-108.01 20.39, -117.23 18.96, -128.08 14.18 C-138.92 9.41, -152.01 1.58, -161.45 -6.29 C-170.9 -14.15, -178.63 -23.84, -184.76 -33 C-190.89 -42.17, -196.11 -50.79, -198.24 -61.27 C-200.36 -71.75, -198.67 -86.82, -197.53 -95.88 C-196.38 -104.94, -195.07 -110.52, -191.38 -115.65 C-187.69 -120.77, -181.33 -124.12, -175.38 -126.63 C-169.43 -129.15, -163.65 -130.12, -155.66 -130.72 C-147.67 -131.32, -135.84 -131.96, -127.44 -130.24 C-119.03 -128.53, -112.6 -124.26, -105.24 -120.42 C-97.88 -116.58, -89.99 -111.14, -83.26 -107.18 C-76.52 -103.23, -69.6 -101.24, -64.82 -96.69 C-60.03 -92.13, -55.33 -86.38, -54.56 -79.85 C-53.79 -73.33, -56.62 -64.34, -60.18 -57.54 C-63.75 -50.74, -70.89 -46.29, -75.93 -39.05 C-80.97 -31.82, -85.69 -19.57, -90.44 -14.14 C-95.19 -8.7, -100.46 -6.97, -104.44 -6.43 C-108.42 -5.89, -113.61 -5.95, -114.32 -10.87 C-115.03 -15.8, -110.7 -27.99, -108.69 -35.98 C-106.68 -43.97, -103.94 -51.47, -102.26 -58.82 C-100.58 -66.16, -99.76 -74.5, -98.62 -80.04 C-97.49 -85.59, -94.92 -87.45, -95.45 -92.1 C-95.99 -96.75, -98.02 -103.49, -101.84 -107.94 C-105.65 -112.38, -111.86 -116.19, -118.34 -118.77 C-124.81 -121.34, -134.12 -123.12, -140.7 -123.4 C-147.28 -123.68, -152.24 -123.19, -157.81 -120.47 C-163.38 -117.74, -170.75 -112.5, -174.12 -107.04 C-177.5 -101.58, -177.83 -95.72, -178.05 -87.7 C-178.27 -79.69, -177.16 -66.95, -175.45 -58.96 C-173.74 -50.97, -171.58 -45.99, -167.79 -39.76 C-164 -33.53, -158.81 -26.93, -152.71 -21.56 C-146.61 -16.19, -139.1 -11.49, -131.2 -7.52 C-123.29 -3.55, -115.63 -0.29, -105.29 2.27 C-94.95 4.83, -81.32 8.45, -69.17 7.85 C-57.02 7.25, -40.96 2.28, -32.39 -1.32 C-23.81 -4.92, -21.12 -9.01, -17.73 -13.76 C-14.34 -18.51, -12.73 -25.08, -12.06 -29.83 C-11.39 -34.58, -13.43 -40.2, -13.71 -42.27 M0 0 C-2.05 2.53, -2.55 10.84, -12.29 15.18 C-22.03 19.51, -44.42 24.81, -58.44 26 C-72.45 27.2, -84.79 24.33, -96.4 22.36 C-108.01 20.39, -117.23 18.96, -128.08 14.18 C-138.92 9.41, -152.01 1.58, -161.45 -6.29 C-170.9 -14.15, -178.63 -23.84, -184.76 -33 C-190.89 -42.17, -196.11 -50.79, -198.24 -61.27 C-200.36 -71.75, -198.67 -86.82, -197.53 -95.88 C-196.38 -104.94, -195.07 -110.52, -191.38 -115.65 C-187.69 -120.77, -181.33 -124.12, -175.38 -126.63 C-169.43 -129.15, -163.65 -130.12, -155.66 -130.72 C-147.67 -131.32, -135.84 -131.96, -127.44 -130.24 C-119.03 -128.53, -112.6 -124.26, -105.24 -120.42 C-97.88 -116.58, -89.99 -111.14, -83.26 -107.18 C-76.52 -103.23, -69.6 -101.24, -64.82 -96.69 C-60.03 -92.13, -55.33 -86.38, -54.56 -79.85 C-53.79 -73.33, -56.62 -64.34, -60.18 -57.54 C-63.75 -50.74, -70.89 -46.29, -75.93 -39.05 C-80.97 -31.82, -85.69 -19.57, -90.44 -14.14 C-95.19 -8.7, -100.46 -6.97, -104.44 -6.43 C-108.42 -5.89, -113.61 -5.95, -114.32 -10.87 C-115.03 -15.8, -110.7 -27.99, -108.69 -35.98 C-106.68 -43.97, -103.94 -51.47, -102.26 -58.82 C-100.58 -66.16, -99.76 -74.5, -98.62 -80.04 C-97.49 -85.59, -94.92 -87.45, -95.45 -92.1 C-95.99 -96.75, -98.02 -103.49, -101.84 -107.94 C-105.65 -112.38, -111.86 -116.19, -118.34 -118.77 C-124.81 -121.34, -134.12 -123.12, -140.7 -123.4 C-147.28 -123.68, -152.24 -123.19, -157.81 -120.47 C-163.38 -117.74, -170.75 -112.5, -174.12 -107.04 C-177.5 -101.58, -177.83 -95.72, -178.05 -87.7 C-178.27 -79.69, -177.16 -66.95, -175.45 -58.96 C-173.74 -50.97, -171.58 -45.99, -167.79 -39.76 C-164 -33.53, -158.81 -26.93, -152.71 -21.56 C-146.61 -16.19, -139.1 -11.49, -131.2 -7.52 C-123.29 -3.55, -115.63 -0.29, -105.29 2.27 C-94.95 4.83, -81.32 8.45, -69.17 7.85 C-57.02 7.25, -40.96 2.28, -32.39 -1.32 C-23.81 -4.92, -21.12 -9.01, -17.73 -13.76 C-14.34 -18.51, -12.73 -25.08, -12.06 -29.83 C-11.39 -34.58, -13.43 -40.2, -13.71 -42.27" stroke="#1e1e1e" stroke-width="2" fill="none"></path></g></g><mask></mask><g stroke-linecap="round"><g transform="translate(18.583860367681723 363.1041503215351) rotate(0 74.65169677734377 -21.98476562499991)"><path d="M0 0 C3.47 2.01, 10.87 10.23, 20.8 12.06 C30.73 13.88, 47.05 11.2, 59.57 10.97 C72.09 10.74, 84.6 12.36, 95.93 10.69 C107.25 9.01, 119.01 6.26, 127.51 0.95 C136 -4.37, 143.26 -13.27, 146.89 -21.18 C150.52 -29.09, 149.3 -40.72, 149.3 -46.52 C149.3 -52.33, 150.52 -55.68, 146.89 -56.03 C143.27 -56.37, 133.56 -51.29, 127.56 -48.6 C121.55 -45.92, 115.83 -43.51, 110.87 -39.9 C105.9 -36.29, 101.83 -29.67, 97.77 -26.95 C93.71 -24.23, 89.17 -22.36, 86.52 -23.59 C83.86 -24.82, 85 -33.63, 81.84 -34.32 C78.68 -35.02, 73.29 -29.16, 67.56 -27.75 C61.83 -26.35, 53.07 -26.59, 47.47 -25.91 C41.86 -25.22, 32.94 -22.09, 33.95 -23.64 C34.95 -25.19, 46.22 -32.25, 53.47 -35.22 C60.72 -38.19, 70.36 -39.65, 77.44 -41.46 C84.52 -43.28, 92.89 -45.32, 95.97 -46.1 M0 0 C3.47 2.01, 10.87 10.23, 20.8 12.06 C30.73 13.88, 47.05 11.2, 59.57 10.97 C72.09 10.74, 84.6 12.36, 95.93 10.69 C107.25 9.01, 119.01 6.26, 127.51 0.95 C136 -4.37, 143.26 -13.27, 146.89 -21.18 C150.52 -29.09, 149.3 -40.72, 149.3 -46.52 C149.3 -52.33, 150.52 -55.68, 146.89 -56.03 C143.27 -56.37, 133.56 -51.29, 127.56 -48.6 C121.55 -45.92, 115.83 -43.51, 110.87 -39.9 C105.9 -36.29, 101.83 -29.67, 97.77 -26.95 C93.71 -24.23, 89.17 -22.36, 86.52 -23.59 C83.86 -24.82, 85 -33.63, 81.84 -34.32 C78.68 -35.02, 73.29 -29.16, 67.56 -27.75 C61.83 -26.35, 53.07 -26.59, 47.47 -25.91 C41.86 -25.22, 32.94 -22.09, 33.95 -23.64 C34.95 -25.19, 46.22 -32.25, 53.47 -35.22 C60.72 -38.19, 70.36 -39.65, 77.44 -41.46 C84.52 -43.28, 92.89 -45.32, 95.97 -46.1" stroke="#1e1e1e" stroke-width="2" fill="none"></path></g></g><mask></mask><g stroke-linecap="round"><g transform="translate(165.94885060205695 346.55649407153527) rotate(0 160.95740966796876 -21.370214843750034)"><path d="M0 0 C8.08 0.76, 33.94 3.65, 48.51 4.54 C63.08 5.43, 76.65 6.46, 87.42 5.34 C98.19 4.22, 104.09 2.37, 113.14 -2.17 C122.18 -6.72, 132.65 -17.44, 141.69 -21.94 C150.73 -26.44, 155.71 -31.4, 167.36 -29.17 C179.02 -26.94, 195.81 -13.55, 211.62 -8.56 C227.42 -3.56, 246.64 -0.4, 262.2 0.8 C277.77 2.01, 295.94 3.54, 304.99 -1.32 C314.04 -6.19, 313.66 -20.57, 316.48 -28.37 C319.3 -36.16, 321.01 -44.8, 321.91 -48.08 M0 0 C8.08 0.76, 33.94 3.65, 48.51 4.54 C63.08 5.43, 76.65 6.46, 87.42 5.34 C98.19 4.22, 104.09 2.37, 113.14 -2.17 C122.18 -6.72, 132.65 -17.44, 141.69 -21.94 C150.73 -26.44, 155.71 -31.4, 167.36 -29.17 C179.02 -26.94, 195.81 -13.55, 211.62 -8.56 C227.42 -3.56, 246.64 -0.4, 262.2 0.8 C277.77 2.01, 295.94 3.54, 304.99 -1.32 C314.04 -6.19, 313.66 -20.57, 316.48 -28.37 C319.3 -36.16, 321.01 -44.8, 321.91 -48.08" stroke="#1e1e1e" stroke-width="2" fill="none"></path></g></g><mask></mask><g stroke-linecap="round"><g transform="translate(394.673268002114 342.7721956346449) rotate(0 -13.994213867187511 12.528955078125023)"><path d="M0 0 C-5.58 -1.08, -23.24 -4.39, -33.47 -6.48 C-43.71 -8.57, -52.19 -12.84, -61.41 -12.53 C-70.63 -12.21, -81.38 -8.18, -88.79 -4.59 C-96.19 -0.99, -102.06 3.92, -105.86 9.03 C-109.65 14.14, -113.66 21.34, -111.58 26.1 C-109.49 30.86, -102.62 36.25, -93.33 37.59 C-84.03 38.93, -65.11 36.45, -55.79 34.14 C-46.47 31.82, -44.23 24.8, -37.4 23.69 C-30.57 22.58, -26.01 26.57, -14.8 27.47 C-3.59 28.37, 15.29 28.31, 29.88 29.08 C44.47 29.84, 63.81 32.83, 72.76 32.06 C81.71 31.28, 82.62 29.14, 83.59 24.44 C84.56 19.74, 79.42 7.29, 78.59 3.86 M0 0 C-5.58 -1.08, -23.24 -4.39, -33.47 -6.48 C-43.71 -8.57, -52.19 -12.84, -61.41 -12.53 C-70.63 -12.21, -81.38 -8.18, -88.79 -4.59 C-96.19 -0.99, -102.06 3.92, -105.86 9.03 C-109.65 14.14, -113.66 21.34, -111.58 26.1 C-109.49 30.86, -102.62 36.25, -93.33 37.59 C-84.03 38.93, -65.11 36.45, -55.79 34.14 C-46.47 31.82, -44.23 24.8, -37.4 23.69 C-30.57 22.58, -26.01 26.57, -14.8 27.47 C-3.59 28.37, 15.29 28.31, 29.88 29.08 C44.47 29.84, 63.81 32.83, 72.76 32.06 C81.71 31.28, 82.62 29.14, 83.59 24.44 C84.56 19.74, 79.42 7.29, 78.59 3.86" stroke="#1e1e1e" stroke-width="2" fill="none"></path></g></g><mask></mask><g stroke-linecap="round"><g transform="translate(55.684498375955286 80.39872852113541) rotate(0 19.398356247354172 32.59710354966839)"><path d="M0 0 C2.05 2.06, 7.75 8.01, 12.32 12.34 C16.9 16.66, 23.51 22.01, 27.45 25.95 C31.39 29.89, 34.09 31.42, 35.96 35.98 C37.83 40.53, 38.18 48.41, 38.65 53.28 C39.13 58.15, 38.77 63.21, 38.8 65.19 M0 0 C2.05 2.06, 7.75 8.01, 12.32 12.34 C16.9 16.66, 23.51 22.01, 27.45 25.95 C31.39 29.89, 34.09 31.42, 35.96 35.98 C37.83 40.53, 38.18 48.41, 38.65 53.28 C39.13 58.15, 38.77 63.21, 38.8 65.19" stroke="#1e1e1e" stroke-width="2" fill="none"></path></g></g><mask></mask><g stroke-linecap="round"><g transform="translate(47.517893570806905 81.60371086841002) rotate(0 -6.571624755859375 9.124853515625006)"><path d="M0 0 C-1.52 1.6, -6.93 6.56, -9.12 9.6 C-11.32 12.64, -12.47 16.81, -13.14 18.25 M0 0 C-1.52 1.6, -6.93 6.56, -9.12 9.6 C-11.32 12.64, -12.47 16.81, -13.14 18.25" stroke="#1e1e1e" stroke-width="2" fill="none"></path></g></g><mask></mask><g stroke-linecap="round"><g transform="translate(67.65816442011203 45.54018229316563) rotate(0 12.60934665928221 -1.178317397274128)"><path d="M0 0 C1.01 0.94, 3.17 4.55, 6.04 5.62 C8.91 6.69, 14.02 6.84, 17.22 6.42 C20.41 5.99, 24.45 5.09, 25.22 3.08 C25.99 1.07, 23.84 -3.66, 21.82 -5.64 C19.8 -7.61, 16.23 -8.75, 13.13 -8.77 C10.02 -8.8, 5.38 -7.27, 3.19 -5.81 C1 -4.35, 0.53 -0.97, 0 0 M0 0 C1.01 0.94, 3.17 4.55, 6.04 5.62 C8.91 6.69, 14.02 6.84, 17.22 6.42 C20.41 5.99, 24.45 5.09, 25.22 3.08 C25.99 1.07, 23.84 -3.66, 21.82 -5.64 C19.8 -7.61, 16.23 -8.75, 13.13 -8.77 C10.02 -8.8, 5.38 -7.27, 3.19 -5.81 C1 -4.35, 0.53 -0.97, 0 0" stroke="#1e1e1e" stroke-width="2" fill="none"></path></g></g><mask></mask><g stroke-linecap="round"><g transform="translate(36.53129757750037 47.72494439718804) rotate(0 8.763781787918447 -1.984576953049384)"><path d="M0 0 C0.7 0.99, 1.88 5.33, 4.2 5.95 C6.51 6.57, 11.67 5.2, 13.89 3.72 C16.11 2.23, 17.62 -0.67, 17.53 -2.94 C17.44 -5.21, 15.63 -9.19, 13.34 -9.92 C11.06 -10.65, 6.04 -8.98, 3.81 -7.33 C1.59 -5.67, 0.64 -1.22, 0 0 M0 0 C0.7 0.99, 1.88 5.33, 4.2 5.95 C6.51 6.57, 11.67 5.2, 13.89 3.72 C16.11 2.23, 17.62 -0.67, 17.53 -2.94 C17.44 -5.21, 15.63 -9.19, 13.34 -9.92 C11.06 -10.65, 6.04 -8.98, 3.81 -7.33 C1.59 -5.67, 0.64 -1.22, 0 0" stroke="#1e1e1e" stroke-width="2" fill="none"></path></g></g><mask></mask><g stroke-linecap="round"><g transform="translate(75.01821895449041 96.14021223688434) rotate(0 4.949119729497795 -39.13307697766942)"><path d="M0 0 C2.82 -1.19, 11.94 -3.16, 16.92 -7.13 C21.9 -11.1, 26.48 -18.35, 29.88 -23.81 C33.29 -29.26, 36.58 -34.3, 37.35 -39.84 C38.13 -45.38, 36.44 -52.82, 34.53 -57.04 C32.62 -61.25, 30.33 -62.2, 25.87 -65.13 C21.42 -68.07, 13.12 -72.46, 7.79 -74.65 C2.46 -76.84, -1.79 -78.1, -6.12 -78.27 C-10.44 -78.43, -14.62 -76.72, -18.18 -75.65 C-21.73 -74.58, -25.91 -72.48, -27.46 -71.85 M0 0 C2.82 -1.19, 11.94 -3.16, 16.92 -7.13 C21.9 -11.1, 26.48 -18.35, 29.88 -23.81 C33.29 -29.26, 36.58 -34.3, 37.35 -39.84 C38.13 -45.38, 36.44 -52.82, 34.53 -57.04 C32.62 -61.25, 30.33 -62.2, 25.87 -65.13 C21.42 -68.07, 13.12 -72.46, 7.79 -74.65 C2.46 -76.84, -1.79 -78.1, -6.12 -78.27 C-10.44 -78.43, -14.62 -76.72, -18.18 -75.65 C-21.73 -74.58, -25.91 -72.48, -27.46 -71.85" stroke="#1e1e1e" stroke-width="2" fill="none"></path></g></g><mask></mask><g stroke-linecap="round"><g transform="translate(42.10906600556075 96.39142518327532) rotate(0 8.164010524136529 -0.2576175420965967)"><path d="M0 0 C1.04 -0.21, 3.51 -1.39, 6.23 -1.27 C8.95 -1.14, 14.65 0.42, 16.33 0.75 M0 0 C1.04 -0.21, 3.51 -1.39, 6.23 -1.27 C8.95 -1.14, 14.65 0.42, 16.33 0.75" stroke="#1e1e1e" stroke-width="2" fill="none"></path></g></g><mask></mask><g stroke-linecap="round"><g transform="translate(132.22086331376192 61.40358436308503) rotate(0 -8.786934760889949 30.84872868789745)"><path d="M0 0 C-1.51 5.18, -6.13 20.77, -9.06 31.06 C-11.99 41.34, -16.15 56.59, -17.57 61.7 M0 0 C-1.51 5.18, -6.13 20.77, -9.06 31.06 C-11.99 41.34, -16.15 56.59, -17.57 61.7" stroke="#1e1e1e" stroke-width="2" fill="none"></path></g></g><mask></mask><g stroke-linecap="round"><g transform="translate(127.63842557345095 38.15539934474447) rotate(0 -13.258489101904047 44.98731578819934)"><path d="M0 0 C-1.59 5.93, -6.58 24.76, -9.57 35.59 C-12.55 46.42, -15.09 55.92, -17.92 64.98 C-20.74 74.05, -25.08 85.81, -26.52 89.97 M0 0 C-1.59 5.93, -6.58 24.76, -9.57 35.59 C-12.55 46.42, -15.09 55.92, -17.92 64.98 C-20.74 74.05, -25.08 85.81, -26.52 89.97" stroke="#1e1e1e" stroke-width="2" fill="none"></path></g></g><mask></mask><g stroke-linecap="round"><g transform="translate(45.77336594532619 113.84483576021313) rotate(0 -2.669674425161304 31.392615925390714)"><path d="M0 0 C-0.37 5.72, -1.32 23.87, -2.21 34.34 C-3.1 44.8, -4.82 58.04, -5.34 62.79 M0 0 C-0.37 5.72, -1.32 23.87, -2.21 34.34 C-3.1 44.8, -4.82 58.04, -5.34 62.79" stroke="#1e1e1e" stroke-width="2" fill="none"></path></g></g><mask></mask><g stroke-linecap="round"><g transform="translate(63.816682749864526 114.67333164029725) rotate(0 -6.7662497439778235 31.82991989606404)"><path d="M0 0 C-1.2 4.34, -5.44 18.24, -7.23 26.05 C-9.01 33.86, -9.67 40.59, -10.72 46.86 C-11.78 53.13, -13.06 60.86, -13.53 63.66 M0 0 C-1.2 4.34, -5.44 18.24, -7.23 26.05 C-9.01 33.86, -9.67 40.59, -10.72 46.86 C-11.78 53.13, -13.06 60.86, -13.53 63.66" stroke="#1e1e1e" stroke-width="2" fill="none"></path></g></g><mask></mask><g stroke-linecap="round"><g transform="translate(76.2904944725318 121.48584200243596) rotate(0 -8.515334896600564 28.74587868534192)"><path d="M0 0 C-1.25 4.78, -4.66 19.09, -7.5 28.68 C-10.34 38.26, -15.44 52.69, -17.03 57.49 M0 0 C-1.25 4.78, -4.66 19.09, -7.5 28.68 C-10.34 38.26, -15.44 52.69, -17.03 57.49" stroke="#1e1e1e" stroke-width="2" fill="none"></path></g></g><mask></mask><g stroke-linecap="round"><g transform="translate(101.98310269487195 89.58240745684026) rotate(0 -2.189877540656198 5.328606710740701)"><path d="M0 0 C-1.13 3.53, -7.17 22.9, -6.77 21.15 C-6.37 19.4, 0.87 -5.22, 2.39 -10.49 M0 0 C-1.13 3.53, -7.17 22.9, -6.77 21.15 C-6.37 19.4, 0.87 -5.22, 2.39 -10.49" stroke="#1e1e1e" stroke-width="2" fill="none"></path></g></g><mask></mask><g stroke-linecap="round"><g transform="translate(84.98997455810934 135.61709709824282) rotate(0 -6.720220874578445 19.33271937531319)"><path d="M0 0 C-2.24 6.44, -11.2 32.22, -13.44 38.67 M0 0 C-2.24 6.44, -11.2 32.22, -13.44 38.67" stroke="#1e1e1e" stroke-width="2" fill="none"></path></g></g><mask></mask><g stroke-linecap="round"><g transform="translate(394.3039412679676 197.52776854588507) rotate(0 -10.563607700318983 39.378868399488226)"><path d="M0 0 C-1.26 6.84, -4.03 27.93, -7.55 41.06 C-11.07 54.19, -18.86 72.47, -21.13 78.76 M0 0 C-1.26 6.84, -4.03 27.93, -7.55 41.06 C-11.07 54.19, -18.86 72.47, -21.13 78.76" stroke="#1e1e1e" stroke-width="2" fill="none"></path></g></g><mask></mask><g stroke-linecap="round"><g transform="translate(403.601844193944 198.86264141212138) rotate(0 -10.172415790908076 38.96459669034243)"><path d="M0 0 C-0.93 4.89, -3.25 19.83, -5.57 29.37 C-7.89 38.9, -11.44 49.12, -13.9 57.22 C-16.36 65.31, -19.27 74.48, -20.34 77.93 M0 0 C-0.93 4.89, -3.25 19.83, -5.57 29.37 C-7.89 38.9, -11.44 49.12, -13.9 57.22 C-16.36 65.31, -19.27 74.48, -20.34 77.93" stroke="#1e1e1e" stroke-width="2" fill="none"></path></g></g><mask></mask><g stroke-linecap="round"><g transform="translate(412.66947204285304 203.18947398117717) rotate(0 -6.397977192851613 24.188866115633687)"><path d="M0 0 C-0.48 3.49, -1.49 14.53, -2.85 20.94 C-4.22 27.36, -6.54 33.91, -8.19 38.48 C-9.85 43.05, -12.03 46.73, -12.8 48.38 M0 0 C-0.48 3.49, -1.49 14.53, -2.85 20.94 C-4.22 27.36, -6.54 33.91, -8.19 38.48 C-9.85 43.05, -12.03 46.73, -12.8 48.38" stroke="#1e1e1e" stroke-width="2" fill="none"></path></g></g><mask></mask><g stroke-linecap="round"><g transform="translate(419.6198432067041 207.9766665515379) rotate(0 -3.912442014391388 15.742324947542784)"><path d="M0 0 C-0.15 2.26, 0.43 8.29, -0.87 13.53 C-2.18 18.78, -6.67 28.49, -7.82 31.48 M0 0 C-0.15 2.26, 0.43 8.29, -0.87 13.53 C-2.18 18.78, -6.67 28.49, -7.82 31.48" stroke="#1e1e1e" stroke-width="2" fill="none"></path></g></g><mask></mask><g stroke-linecap="round"><g transform="translate(328.98901124397037 332.7185392966016) rotate(0 6.973379656274801 19.26369389804205)"><path d="M0 0 C1.21 3.05, 4.95 11.85, 7.27 18.27 C9.6 24.7, 12.83 35.15, 13.95 38.53 M0 0 C1.21 3.05, 4.95 11.85, 7.27 18.27 C9.6 24.7, 12.83 35.15, 13.95 38.53" stroke="#1e1e1e" stroke-width="2" fill="none"></path></g></g><mask></mask><g stroke-linecap="round"><g transform="translate(121.58290196147493 330.2790211029887) rotate(0 7.410647973292498 19.010434097654752)"><path d="M0 0 C1.05 2.73, 4.39 11.33, 6.31 16.39 C8.22 21.44, 10.09 26.73, 11.51 30.33 C12.93 33.94, 14.27 36.74, 14.82 38.02 M0 0 C1.05 2.73, 4.39 11.33, 6.31 16.39 C8.22 21.44, 10.09 26.73, 11.51 30.33 C12.93 33.94, 14.27 36.74, 14.82 38.02" stroke="#1e1e1e" stroke-width="2" fill="none"></path></g></g><mask></mask><g stroke-linecap="round"><g transform="translate(50.643382648235615 53.15155551804975) rotate(0 0.5388347107556797 14.036420375031582)"><path d="M0 0 C-0.84 1.74, -3.66 6.98, -5.04 10.44 C-6.42 13.9, -7.85 17.99, -8.3 20.76 C-8.76 23.53, -9.3 25.85, -7.76 27.07 C-6.22 28.29, -1.86 28.13, 0.91 28.07 C3.69 28.02, 7.49 28.66, 8.9 26.73 C10.31 24.8, 9.3 18.2, 9.38 16.49 M0 0 C-0.84 1.74, -3.66 6.98, -5.04 10.44 C-6.42 13.9, -7.85 17.99, -8.3 20.76 C-8.76 23.53, -9.3 25.85, -7.76 27.07 C-6.22 28.29, -1.86 28.13, 0.91 28.07 C3.69 28.02, 7.49 28.66, 8.9 26.73 C10.31 24.8, 9.3 18.2, 9.38 16.49" stroke="#1e1e1e" stroke-width="2" fill="none"></path></g></g><mask></mask><g stroke-linecap="round"><g transform="translate(49.031364854824346 81.75752437605621) rotate(0 -0.6894983415582487 -2.9243439817841193)"><path d="M0 0 C0.97 -0.28, 5.65 -0.71, 5.8 -1.68 C5.96 -2.66, 3.09 -5.53, 0.93 -5.85 C-1.23 -6.16, -7.03 -4.55, -7.18 -3.57 C-7.34 -2.6, -1.2 -0.6, 0 0 M0 0 C0.97 -0.28, 5.65 -0.71, 5.8 -1.68 C5.96 -2.66, 3.09 -5.53, 0.93 -5.85 C-1.23 -6.16, -7.03 -4.55, -7.18 -3.57 C-7.34 -2.6, -1.2 -0.6, 0 0" stroke="#1e1e1e" stroke-width="2" fill="none"></path></g></g><mask></mask><g stroke-linecap="round"><g transform="translate(91.36540282777344 151.40967413434674) rotate(0 -2.6710047092748255 6.691904476331189)"><path d="M0 0 C-0.89 2.23, -4.45 11.15, -5.34 13.38 M0 0 C-0.89 2.23, -4.45 11.15, -5.34 13.38" stroke="#1e1e1e" stroke-width="2" fill="none"></path></g></g><mask></mask><g transform="translate(55.087984180182616 190.8769064090937) rotate(0 -0.39431907611060524 0.1855590998786738)" stroke="none"><path d="" stroke="#1e1e1e" stroke-width="0.25" fill="none"></path><path fill="#1e1e1e" d="M 0.88,-0.27 Q 0.88,-0.27 0.90,-0.05 0.91,0.16 0.82,0.37 0.73,0.57 0.55,0.71 0.38,0.84 0.16,0.88 -0.05,0.92 -0.26,0.86 -0.48,0.79 -0.63,0.63 -0.79,0.48 -0.86,0.26 -0.92,0.05 -0.88,-0.16 -0.84,-0.38 -0.71,-0.55 -0.57,-0.73 -0.37,-0.82 -0.16,-0.91 0.05,-0.90 0.27,-0.88 0.46,-0.77 0.65,-0.65 0.77,-0.46 L 0.88,-0.27 Z"></path></g><g transform="translate(91.08644955664352 167.4494112738833) rotate(0 -0.5566772996360214 0.6726697036654912)" stroke="none"><path d="M0 0 C0 0, 0 0, 0 0 M0 0 C0 0, 0 0, 0 0" stroke="#1e1e1e" stroke-width="0.25" fill="none"></path><path fill="#1e1e1e" d="M 0.74,0.51 Q 0.74,0.51 0.54,0.67 0.35,0.82 0.30,0.88 0.24,0.94 0.18,0.99 0.11,1.03 0.04,1.06 -0.02,1.09 -0.10,1.10 -0.18,1.11 -0.26,1.10 -0.34,1.09 -0.41,1.06 -0.49,1.03 -0.55,0.99 -0.62,0.94 -0.67,0.88 -0.72,0.83 -0.76,0.76 -0.80,0.69 -0.81,0.61 -0.83,0.53 -0.83,0.45 -0.83,0.37 -0.82,0.30 -0.80,0.22 -0.76,0.15 -0.72,0.08 -0.70,0.05 -0.68,0.02 -0.60,-0.04 -0.52,-0.10 -0.42,-0.14 -0.32,-0.18 -0.21,-0.19 -0.11,-0.19 -0.00,-0.16 0.09,-0.13 0.18,-0.07 0.26,-0.01 0.33,0.06 0.39,0.15 0.42,0.25 0.46,0.35 0.46,0.46 0.45,0.56 0.42,0.66 0.39,0.77 0.32,0.85 0.26,0.93 0.17,0.99 0.08,1.05 -0.01,1.08 -0.12,1.11 -0.22,1.10 -0.33,1.09 -0.43,1.05 -0.53,1.01 -0.61,0.94 -0.69,0.87 -0.74,0.78 -0.79,0.69 -0.82,0.59 -0.84,0.48 -0.83,0.38 -0.81,0.27 -0.77,0.17 -0.72,0.08 -0.65,0.00 -0.57,-0.06 -0.48,-0.11 -0.39,-0.16 -0.28,-0.18 -0.18,-0.19 -0.07,-0.18 0.02,-0.16 0.12,-0.11 0.21,-0.06 0.28,0.01 0.35,0.09 0.40,0.19 0.44,0.28 0.45,0.39 0.46,0.49 0.44,0.60 0.42,0.70 0.38,0.76 0.35,0.82 0.30,0.88 0.24,0.94 0.18,0.99 0.11,1.03 0.04,1.06 -0.02,1.09 -0.10,1.10 -0.18,1.11 -0.26,1.10 -0.34,1.09 -0.41,1.06 -0.49,1.03 -0.55,0.99 -0.62,0.94 -0.67,0.88 -0.72,0.83 -0.76,0.76 -0.80,0.69 -0.81,0.61 -0.83,0.53 -0.83,0.45 -0.83,0.37 -0.82,0.30 -0.80,0.22 -0.76,0.15 -0.72,0.08 -0.73,-0.21 -0.74,-0.51 -0.67,-0.59 -0.60,-0.67 -0.51,-0.73 -0.42,-0.80 -0.31,-0.84 -0.21,-0.87 -0.10,-0.89 -0.00,-0.90 0.10,-0.89 0.21,-0.87 0.31,-0.84 0.42,-0.80 0.51,-0.73 0.60,-0.67 0.67,-0.59 0.74,-0.51 0.79,-0.41 0.84,-0.32 0.87,-0.21 0.89,-0.10 0.89,-0.00 0.89,0.10 0.87,0.21 0.84,0.32 0.79,0.41 0.74,0.51 0.74,0.51 L 0.74,0.51 Z"></path></g><g stroke-linecap="round"><g transform="translate(386.4376458627888 203.9115351596202) rotate(0 9.280949371304189 -7.52665989827571)"><path d="M0 0 C0.44 -1.48, 1.04 -6.52, 2.64 -8.85 C4.24 -11.19, 6.97 -13, 9.63 -14.04 C12.28 -15.07, 17.07 -14.88, 18.56 -15.05 M0 0 C0.44 -1.48, 1.04 -6.52, 2.64 -8.85 C4.24 -11.19, 6.97 -13, 9.63 -14.04 C12.28 -15.07, 17.07 -14.88, 18.56 -15.05" stroke="#1e1e1e" stroke-width="2" fill="none"></path></g></g><mask></mask><g stroke-linecap="round" transform="translate(75.46764775113763 37.71408650993209) rotate(6.709820230883681 2.84865658630099 6.706207663776496)"><path d="M3 0 L5.7 7 L3 13.41 L0 7" stroke="none" stroke-width="0" fill="#1e1e1e" fill-rule="evenodd"></path><path d="M3 0 C4.03 2.67, 5.06 5.34, 5.7 7 M3 0 C4 2.59, 4.99 5.18, 5.7 7 M5.7 7 C4.99 8.68, 4.29 10.35, 3 13.41 M5.7 7 C5.15 8.31, 4.6 9.61, 3 13.41 M3 13.41 C1.9 11.06, 0.8 8.72, 0 7 M3 13.41 C2.16 11.61, 1.32 9.81, 0 7 M0 7 C0.72 5.32, 1.44 3.64, 3 0 M0 7 C1.18 4.25, 2.36 1.5, 3 0" stroke="#1e1e1e" stroke-width="1" fill="none"></path></g><g stroke-linecap="round" transform="translate(41.41565155567662 39.56880528302719) rotate(0.20760512006615064 2.84865658630099 6.706207663776496)"><path d="M3 0 L5.7 7 L3 13.41 L0 7" stroke="none" stroke-width="0" fill="#1e1e1e" fill-rule="evenodd"></path><path d="M3 0 C3.69 1.8, 4.38 3.59, 5.7 7 M3 0 C3.85 2.21, 4.7 4.41, 5.7 7 M5.7 7 C5.07 8.5, 4.44 10, 3 13.41 M5.7 7 C4.94 8.81, 4.18 10.62, 3 13.41 M3 13.41 C2.23 11.77, 1.47 10.13, 0 7 M3 13.41 C2.09 11.46, 1.17 9.5, 0 7 M0 7 C0.62 5.56, 1.24 4.11, 3 0 M0 7 C1.02 4.63, 2.03 2.26, 3 0" stroke="#1e1e1e" stroke-width="1" fill="none"></path></g><g stroke-linecap="round"><g transform="translate(70.347233123828 72.87944032559864) rotate(0 12.705768202670583 4.085417092779096)"><path d="M0 0 C1.17 1.36, 3.81 6.81, 7.02 8.17 C10.22 9.53, 16.16 9.47, 19.23 8.17 C22.3 6.87, 24.38 1.68, 25.41 0.39 M0 0 C1.17 1.36, 3.81 6.81, 7.02 8.17 C10.22 9.53, 16.16 9.47, 19.23 8.17 C22.3 6.87, 24.38 1.68, 25.41 0.39" stroke="#1e1e1e" stroke-width="2" fill="none"></path></g></g><mask></mask><g stroke-linecap="round"><g transform="translate(39.0542171443243 77.670355419793) rotate(0 -5.572437223876079 -0.9084023246842889)"><path d="M0 0 C-0.67 0.32, -2.51 1.93, -4 1.9 C-5.49 1.88, -7.73 0.8, -8.92 -0.14 C-10.11 -1.08, -10.77 -3.12, -11.14 -3.72 M0 0 C-0.67 0.32, -2.51 1.93, -4 1.9 C-5.49 1.88, -7.73 0.8, -8.92 -0.14 C-10.11 -1.08, -10.77 -3.12, -11.14 -3.72" stroke="#1e1e1e" stroke-width="2" fill="none"></path></g></g><mask></mask><g stroke-linecap="round"><g transform="translate(120.27656090759376 25.633025160570753) rotate(0 9.890167209738081 -0.5244792570454138)"><path d="M0 0 C0.32 -1.02, 0.37 -4.45, 1.95 -6.14 C3.52 -7.84, 6.69 -9.67, 9.44 -10.19 C12.19 -10.71, 16.71 -10.89, 18.43 -9.29 C20.15 -7.69, 20.3 -3.67, 19.78 -0.6 C19.26 2.47, 17.43 7.69, 15.28 9.14 C13.14 10.59, 8.29 8.27, 6.89 8.09 M0 0 C0.32 -1.02, 0.37 -4.45, 1.95 -6.14 C3.52 -7.84, 6.69 -9.67, 9.44 -10.19 C12.19 -10.71, 16.71 -10.89, 18.43 -9.29 C20.15 -7.69, 20.3 -3.67, 19.78 -0.6 C19.26 2.47, 17.43 7.69, 15.28 9.14 C13.14 10.59, 8.29 8.27, 6.89 8.09" stroke="#1e1e1e" stroke-width="2" fill="none"></path></g></g><mask></mask><g stroke-linecap="round"><g transform="translate(129.41561480938537 57.154738514045505) rotate(0 11.899460621786773 -2.60585985763538)"><path d="M0 0 C0.17 -1.83, -0.32 -8.33, 0.99 -10.98 C2.31 -13.63, 4.78 -15, 7.89 -15.9 C11 -16.8, 16.99 -18.25, 19.64 -16.38 C22.29 -14.5, 23.6 -8.25, 23.8 -4.67 C24 -1.08, 22.01 2.53, 20.84 5.14 C19.68 7.76, 18.63 10.03, 16.81 11.03 C14.98 12.04, 11.06 11.14, 9.91 11.16 M0 0 C0.17 -1.83, -0.32 -8.33, 0.99 -10.98 C2.31 -13.63, 4.78 -15, 7.89 -15.9 C11 -16.8, 16.99 -18.25, 19.64 -16.38 C22.29 -14.5, 23.6 -8.25, 23.8 -4.67 C24 -1.08, 22.01 2.53, 20.84 5.14 C19.68 7.76, 18.63 10.03, 16.81 11.03 C14.98 12.04, 11.06 11.14, 9.91 11.16" stroke="#1e1e1e" stroke-width="2" fill="none"></path></g></g><mask></mask><g stroke-linecap="round"><g transform="translate(133.3849267898919 56.651487661310796) rotate(0 8.756220948583632 -3.3915428502801888)"><path d="M0 0 C0.17 -1.18, -0.32 -5.07, 0.99 -7.06 C2.31 -9.06, 5.66 -11.33, 7.89 -11.98 C10.12 -12.63, 12.9 -11.79, 14.38 -10.95 C15.86 -10.11, 16.24 -8.44, 16.76 -6.96 C17.29 -5.48, 17.49 -4.1, 17.51 -2.07 C17.53 -0.05, 16.99 3.99, 16.88 5.2 M0 0 C0.17 -1.18, -0.32 -5.07, 0.99 -7.06 C2.31 -9.06, 5.66 -11.33, 7.89 -11.98 C10.12 -12.63, 12.9 -11.79, 14.38 -10.95 C15.86 -10.11, 16.24 -8.44, 16.76 -6.96 C17.29 -5.48, 17.49 -4.1, 17.51 -2.07 C17.53 -0.05, 16.99 3.99, 16.88 5.2" stroke="#1e1e1e" stroke-width="2" fill="none"></path></g></g><mask></mask><g stroke-linecap="round"><g transform="translate(140.20924082192403 57.38510500682315) rotate(0 2.138232359256506 -2.6545115121918457)"><path d="M0 0 C0.02 0.57, -0.38 2.51, 0.09 3.4 C0.56 4.28, 1.82 5.38, 2.84 5.32 C3.86 5.25, 5.57 4.65, 6.21 3 C6.86 1.34, 7.15 -2.55, 6.71 -4.61 C6.26 -6.68, 5.06 -8.4, 3.54 -9.4 C2.02 -10.4, -1.44 -10.42, -2.43 -10.63 M0 0 C0.02 0.57, -0.38 2.51, 0.09 3.4 C0.56 4.28, 1.82 5.38, 2.84 5.32 C3.86 5.25, 5.57 4.65, 6.21 3 C6.86 1.34, 7.15 -2.55, 6.71 -4.61 C6.26 -6.68, 5.06 -8.4, 3.54 -9.4 C2.02 -10.4, -1.44 -10.42, -2.43 -10.63" stroke="#1e1e1e" stroke-width="2" fill="none"></path></g></g><mask></mask></svg>