<svg version="1.1" xmlns="http://www.w3.org/2000/svg" viewBox="0 0 153.2886018353854 247.80460661062222" width="153.2886018353854" height="247.80460661062222" class="excalidraw-svg">
  <!-- svg-source:excalidraw -->
  
  <defs>
    <style class="style-fonts">
      @font-face {
        font-family: "Virgil";
        src: url("https://excalidraw.com/Virgil.woff2");
      }
      @font-face {
        font-family: "Cascadia";
        src: url("https://excalidraw.com/Cascadia.woff2");
      }
      @font-face {
        font-family: "Assistant";
        src: url("https://excalidraw.com/Assistant-Regular.woff2");
      }
    </style>
    
  </defs>
  <g stroke-linecap="round"><g transform="translate(130.66616558194505 66.82311991102614) rotate(0 -56.61520996093748 -28.36754150390624)"><path d="M0 0 C0.78 -2.22, 4.46 -9.1, 4.68 -13.33 C4.9 -17.56, 3.52 -22.91, 1.32 -25.39 C-0.87 -27.87, -6.6 -24.18, -8.51 -28.23 C-10.42 -32.28, -7.54 -45.69, -10.12 -49.69 C-12.69 -53.69, -15.63 -51.07, -23.97 -52.24 C-32.31 -53.42, -51.6 -56.36, -60.18 -56.74 C-68.77 -57.11, -69.37 -56.25, -75.5 -54.51 C-81.63 -52.77, -91.14 -50.06, -96.97 -46.29 C-102.8 -42.51, -107.89 -36.85, -110.49 -31.87 C-113.09 -26.88, -111.33 -21.25, -112.57 -16.36 C-113.81 -11.47, -117.02 -4.81, -117.91 -2.51 M0 0 C0.78 -2.22, 4.46 -9.1, 4.68 -13.33 C4.9 -17.56, 3.52 -22.91, 1.32 -25.39 C-0.87 -27.87, -6.6 -24.18, -8.51 -28.23 C-10.42 -32.28, -7.54 -45.69, -10.12 -49.69 C-12.69 -53.69, -15.63 -51.07, -23.97 -52.24 C-32.31 -53.42, -51.6 -56.36, -60.18 -56.74 C-68.77 -57.11, -69.37 -56.25, -75.5 -54.51 C-81.63 -52.77, -91.14 -50.06, -96.97 -46.29 C-102.8 -42.51, -107.89 -36.85, -110.49 -31.87 C-113.09 -26.88, -111.33 -21.25, -112.57 -16.36 C-113.81 -11.47, -117.02 -4.81, -117.91 -2.51" stroke="#1e1e1e" stroke-width="4" fill="none"></path></g></g><mask></mask><g stroke-linecap="round"><g transform="translate(13.606241265538756 64.74284647352619) rotate(0 56.59157104492181 64.7961669921875)"><path d="M0 0 C-0.6 1.51, -3.84 5.78, -3.59 9.03 C-3.35 12.28, 0.77 15.48, 1.47 19.53 C2.16 23.58, -0.1 29.96, 0.57 33.33 C1.24 36.7, 4.97 34.33, 5.48 39.76 C6 45.19, 3.99 54.58, 3.64 65.91 C3.29 77.23, 2.88 98.5, 3.36 107.7 C3.84 116.91, 4.81 117.48, 6.52 121.13 C8.24 124.78, 6.7 131.54, 13.66 129.59 C20.63 127.65, 38.06 116.6, 48.32 109.45 C58.58 102.3, 68.25 94.72, 75.22 86.71 C82.19 78.7, 85.74 70.03, 90.16 61.42 C94.58 52.8, 98.28 42.59, 101.74 35.03 C105.2 27.48, 108.41 20.76, 110.91 16.07 C113.42 11.39, 115.8 8.43, 116.78 6.9 M0 0 C-0.6 1.51, -3.84 5.78, -3.59 9.03 C-3.35 12.28, 0.77 15.48, 1.47 19.53 C2.16 23.58, -0.1 29.96, 0.57 33.33 C1.24 36.7, 4.97 34.33, 5.48 39.76 C6 45.19, 3.99 54.58, 3.64 65.91 C3.29 77.23, 2.88 98.5, 3.36 107.7 C3.84 116.91, 4.81 117.48, 6.52 121.13 C8.24 124.78, 6.7 131.54, 13.66 129.59 C20.63 127.65, 38.06 116.6, 48.32 109.45 C58.58 102.3, 68.25 94.72, 75.22 86.71 C82.19 78.7, 85.74 70.03, 90.16 61.42 C94.58 52.8, 98.28 42.59, 101.74 35.03 C105.2 27.48, 108.41 20.76, 110.91 16.07 C113.42 11.39, 115.8 8.43, 116.78 6.9" stroke="#1e1e1e" stroke-width="4" fill="none"></path></g></g><mask></mask><g stroke-linecap="round"><g transform="translate(37.56365417615598 79.99108678250161) rotate(0 19.398356247354172 32.59710354966839)"><path d="M0 0 C2.05 2.06, 7.75 8.01, 12.32 12.34 C16.9 16.66, 23.51 22.01, 27.45 25.95 C31.39 29.89, 34.09 31.42, 35.96 35.98 C37.83 40.53, 38.18 48.41, 38.65 53.28 C39.13 58.15, 38.77 63.21, 38.8 65.19 M0 0 C2.05 2.06, 7.75 8.01, 12.32 12.34 C16.9 16.66, 23.51 22.01, 27.45 25.95 C31.39 29.89, 34.09 31.42, 35.96 35.98 C37.83 40.53, 38.18 48.41, 38.65 53.28 C39.13 58.15, 38.77 63.21, 38.8 65.19" stroke="#1e1e1e" stroke-width="4" fill="none"></path></g></g><mask></mask><g stroke-linecap="round"><g transform="translate(29.397049371007597 81.19606912977616) rotate(0 -6.571624755859375 9.124853515625006)"><path d="M0 0 C-1.52 1.6, -6.93 6.56, -9.12 9.6 C-11.32 12.64, -12.47 16.81, -13.14 18.25 M0 0 C-1.52 1.6, -6.93 6.56, -9.12 9.6 C-11.32 12.64, -12.47 16.81, -13.14 18.25" stroke="#1e1e1e" stroke-width="4" fill="none"></path></g></g><mask></mask><g stroke-linecap="round"><g transform="translate(49.53732022031272 45.132540554531886) rotate(0 12.60934665928221 -1.1783173972741139)"><path d="M0 0 C1.01 0.94, 3.17 4.55, 6.04 5.62 C8.91 6.69, 14.02 6.84, 17.22 6.42 C20.41 5.99, 24.45 5.09, 25.22 3.08 C25.99 1.07, 23.84 -3.66, 21.82 -5.64 C19.8 -7.61, 16.23 -8.75, 13.13 -8.77 C10.02 -8.8, 5.38 -7.27, 3.19 -5.81 C1 -4.35, 0.53 -0.97, 0 0 M0 0 C1.01 0.94, 3.17 4.55, 6.04 5.62 C8.91 6.69, 14.02 6.84, 17.22 6.42 C20.41 5.99, 24.45 5.09, 25.22 3.08 C25.99 1.07, 23.84 -3.66, 21.82 -5.64 C19.8 -7.61, 16.23 -8.75, 13.13 -8.77 C10.02 -8.8, 5.38 -7.27, 3.19 -5.81 C1 -4.35, 0.53 -0.97, 0 0" stroke="#1e1e1e" stroke-width="4" fill="none"></path></g></g><mask></mask><g stroke-linecap="round"><g transform="translate(16.92781365894325 47.95672605952774) rotate(0 8.993759910219296 -2.0420728544023206)" fill-rule="evenodd"><path d="M4.02 -7.1 C4.02 -7.1, 4.02 -7.1, 4.02 -7.1 M4.02 -7.1 C4.02 -7.1, 4.02 -7.1, 4.02 -7.1" stroke="#1e1e1e" stroke-width="2" fill="none"></path><path d="M0 0 C0.78 0.98, 2.27 5.28, 4.66 5.89 C7.05 6.5, 12.13 5.14, 14.35 3.66 C16.57 2.18, 18.08 -0.73, 17.99 -3 C17.9 -5.27, 16.09 -9.24, 13.8 -9.98 C11.52 -10.71, 6.57 -9.05, 4.27 -7.38 C1.97 -5.72, 0.71 -1.23, 0 0 M0 0 C0.78 0.98, 2.27 5.28, 4.66 5.89 C7.05 6.5, 12.13 5.14, 14.35 3.66 C16.57 2.18, 18.08 -0.73, 17.99 -3 C17.9 -5.27, 16.09 -9.24, 13.8 -9.98 C11.52 -10.71, 6.57 -9.05, 4.27 -7.38 C1.97 -5.72, 0.71 -1.23, 0 0" stroke="#1e1e1e" stroke-width="4" fill="none"></path></g></g><mask></mask><g stroke-linecap="round"><g transform="translate(17.950497133099134 47.37479855990722) rotate(0 8.993759910219296 -2.0420728544023206)"><path d="M0 0 C0.78 0.98, 2.27 5.28, 4.66 5.89 C7.05 6.5, 12.13 5.14, 14.35 3.66 C16.57 2.18, 18.08 -0.73, 17.99 -3 C17.9 -5.27, 16.09 -9.24, 13.8 -9.98 C11.52 -10.71, 6.57 -9.05, 4.27 -7.38 C1.97 -5.72, 0.71 -1.23, 0 0 M0 0 C0.78 0.98, 2.27 5.28, 4.66 5.89 C7.05 6.5, 12.13 5.14, 14.35 3.66 C16.57 2.18, 18.08 -0.73, 17.99 -3 C17.9 -5.27, 16.09 -9.24, 13.8 -9.98 C11.52 -10.71, 6.57 -9.05, 4.27 -7.38 C1.97 -5.72, 0.71 -1.23, 0 0" stroke="#1e1e1e" stroke-width="4" fill="none"></path></g></g><mask></mask><g stroke-linecap="round"><g transform="translate(56.8973747546911 95.73257049825048) rotate(0 4.949119729497852 -39.13307697766942)"><path d="M0 0 C2.82 -1.19, 11.94 -3.16, 16.92 -7.13 C21.9 -11.1, 26.48 -18.35, 29.88 -23.81 C33.29 -29.26, 36.58 -34.3, 37.35 -39.84 C38.13 -45.38, 36.44 -52.82, 34.53 -57.04 C32.62 -61.25, 30.33 -62.2, 25.87 -65.13 C21.42 -68.07, 13.12 -72.46, 7.79 -74.65 C2.46 -76.84, -1.79 -78.1, -6.12 -78.27 C-10.44 -78.43, -14.62 -76.72, -18.18 -75.65 C-21.73 -74.58, -25.91 -72.48, -27.46 -71.85 M0 0 C2.82 -1.19, 11.94 -3.16, 16.92 -7.13 C21.9 -11.1, 26.48 -18.35, 29.88 -23.81 C33.29 -29.26, 36.58 -34.3, 37.35 -39.84 C38.13 -45.38, 36.44 -52.82, 34.53 -57.04 C32.62 -61.25, 30.33 -62.2, 25.87 -65.13 C21.42 -68.07, 13.12 -72.46, 7.79 -74.65 C2.46 -76.84, -1.79 -78.1, -6.12 -78.27 C-10.44 -78.43, -14.62 -76.72, -18.18 -75.65 C-21.73 -74.58, -25.91 -72.48, -27.46 -71.85" stroke="#1e1e1e" stroke-width="4" fill="none"></path></g></g><mask></mask><g stroke-linecap="round"><g transform="translate(23.98822180576144 95.9837834446414) rotate(0 8.164010524136529 -0.2576175420966109)"><path d="M0 0 C1.04 -0.21, 3.51 -1.39, 6.23 -1.27 C8.95 -1.14, 14.65 0.42, 16.33 0.75 M0 0 C1.04 -0.21, 3.51 -1.39, 6.23 -1.27 C8.95 -1.14, 14.65 0.42, 16.33 0.75" stroke="#1e1e1e" stroke-width="4" fill="none"></path></g></g><mask></mask><g stroke-linecap="round"><g transform="translate(114.10001911396262 60.99594262445112) rotate(0 -8.786934760889949 30.84872868789745)"><path d="M0 0 C-1.51 5.18, -6.13 20.77, -9.06 31.06 C-11.99 41.34, -16.15 56.59, -17.57 61.7 M0 0 C-1.51 5.18, -6.13 20.77, -9.06 31.06 C-11.99 41.34, -16.15 56.59, -17.57 61.7" stroke="#1e1e1e" stroke-width="4" fill="none"></path></g></g><mask></mask><g stroke-linecap="round"><g transform="translate(109.51758137365164 37.747757606110724) rotate(0 -13.258489101904047 44.98731578819934)"><path d="M0 0 C-1.59 5.93, -6.58 24.76, -9.57 35.59 C-12.55 46.42, -15.09 55.92, -17.92 64.98 C-20.74 74.05, -25.08 85.81, -26.52 89.97 M0 0 C-1.59 5.93, -6.58 24.76, -9.57 35.59 C-12.55 46.42, -15.09 55.92, -17.92 64.98 C-20.74 74.05, -25.08 85.81, -26.52 89.97" stroke="#1e1e1e" stroke-width="4" fill="none"></path></g></g><mask></mask><g stroke-linecap="round"><g transform="translate(27.652521745526883 113.43719402157927) rotate(0 -2.669674425161247 31.392615925390714)"><path d="M0 0 C-0.37 5.72, -1.32 23.87, -2.21 34.34 C-3.1 44.8, -4.82 58.04, -5.34 62.79 M0 0 C-0.37 5.72, -1.32 23.87, -2.21 34.34 C-3.1 44.8, -4.82 58.04, -5.34 62.79" stroke="#1e1e1e" stroke-width="4" fill="none"></path></g></g><mask></mask><g stroke-linecap="round"><g transform="translate(45.69583855006522 114.2656899016635) rotate(0 -6.7662497439778235 31.82991989606404)"><path d="M0 0 C-1.2 4.34, -5.44 18.24, -7.23 26.05 C-9.01 33.86, -9.67 40.59, -10.72 46.86 C-11.78 53.13, -13.06 60.86, -13.53 63.66 M0 0 C-1.2 4.34, -5.44 18.24, -7.23 26.05 C-9.01 33.86, -9.67 40.59, -10.72 46.86 C-11.78 53.13, -13.06 60.86, -13.53 63.66" stroke="#1e1e1e" stroke-width="4" fill="none"></path></g></g><mask></mask><g stroke-linecap="round"><g transform="translate(58.1696502727325 121.07820026380216) rotate(0 -8.515334896600507 28.74587868534192)"><path d="M0 0 C-1.25 4.78, -4.66 19.09, -7.5 28.68 C-10.34 38.26, -15.44 52.69, -17.03 57.49 M0 0 C-1.25 4.78, -4.66 19.09, -7.5 28.68 C-10.34 38.26, -15.44 52.69, -17.03 57.49" stroke="#1e1e1e" stroke-width="4" fill="none"></path></g></g><mask></mask><g stroke-linecap="round"><g transform="translate(83.86225849507264 89.1747657182064) rotate(0 -2.189877540656312 5.328606710740715)"><path d="M0 0 C-1.13 3.53, -7.17 22.9, -6.77 21.15 C-6.37 19.4, 0.87 -5.22, 2.39 -10.49 M0 0 C-1.13 3.53, -7.17 22.9, -6.77 21.15 C-6.37 19.4, 0.87 -5.22, 2.39 -10.49" stroke="#1e1e1e" stroke-width="4" fill="none"></path></g></g><mask></mask><g stroke-linecap="round"><g transform="translate(66.86913035831003 135.20945535960897) rotate(0 -6.720220874578445 19.33271937531319)"><path d="M0 0 C-2.24 6.44, -11.2 32.22, -13.44 38.67 M0 0 C-2.24 6.44, -11.2 32.22, -13.44 38.67" stroke="#1e1e1e" stroke-width="4" fill="none"></path></g></g><mask></mask><g stroke-linecap="round"><g transform="translate(32.52253844843631 52.743913779416005) rotate(0 0.5388347107557365 14.036420375031582)"><path d="M0 0 C-0.84 1.74, -3.66 6.98, -5.04 10.44 C-6.42 13.9, -7.85 17.99, -8.3 20.76 C-8.76 23.53, -9.3 25.85, -7.76 27.07 C-6.22 28.29, -1.86 28.13, 0.91 28.07 C3.69 28.02, 7.49 28.66, 8.9 26.73 C10.31 24.8, 9.3 18.2, 9.38 16.49 M0 0 C-0.84 1.74, -3.66 6.98, -5.04 10.44 C-6.42 13.9, -7.85 17.99, -8.3 20.76 C-8.76 23.53, -9.3 25.85, -7.76 27.07 C-6.22 28.29, -1.86 28.13, 0.91 28.07 C3.69 28.02, 7.49 28.66, 8.9 26.73 C10.31 24.8, 9.3 18.2, 9.38 16.49" stroke="#1e1e1e" stroke-width="4" fill="none"></path></g></g><mask></mask><g stroke-linecap="round"><g transform="translate(30.553460113247638 81.53927909840257) rotate(0 -0.6894983415583056 -3.872518126335578)" fill-rule="evenodd"><path d="M-7.09 -4.84 C-7.09 -4.84, -7.09 -4.84, -7.09 -4.84 M-7.09 -4.84 C-7.09 -4.84, -7.09 -4.84, -7.09 -4.84" stroke="#1e1e1e" stroke-width="2" fill="none"></path><path d="M0 0 C0.97 -0.37, 5.65 -0.94, 5.8 -2.23 C5.96 -3.52, 3.09 -7.33, 0.93 -7.75 C-1.23 -8.16, -7.03 -6.02, -7.18 -4.73 C-7.34 -3.44, -1.2 -0.79, 0 0 M0 0 C0.97 -0.37, 5.65 -0.94, 5.8 -2.23 C5.96 -3.52, 3.09 -7.33, 0.93 -7.75 C-1.23 -8.16, -7.03 -6.02, -7.18 -4.73 C-7.34 -3.44, -1.2 -0.79, 0 0" stroke="#1e1e1e" stroke-width="4" fill="none"></path></g></g><mask></mask><g stroke-linecap="round"><g transform="translate(30.91052065502504 81.34988263742241) rotate(0 -0.6894983415583056 -3.872518126335578)"><path d="M0 0 C0.97 -0.37, 5.65 -0.94, 5.8 -2.23 C5.96 -3.52, 3.09 -7.33, 0.93 -7.75 C-1.23 -8.16, -7.03 -6.02, -7.18 -4.73 C-7.34 -3.44, -1.2 -0.79, 0 0 M0 0 C0.97 -0.37, 5.65 -0.94, 5.8 -2.23 C5.96 -3.52, 3.09 -7.33, 0.93 -7.75 C-1.23 -8.16, -7.03 -6.02, -7.18 -4.73 C-7.34 -3.44, -1.2 -0.79, 0 0" stroke="#1e1e1e" stroke-width="4" fill="none"></path></g></g><mask></mask><g stroke-linecap="round"><g transform="translate(73.24455862797413 151.00203239571283) rotate(0 -2.6710047092748255 6.691904476331189)"><path d="M0 0 C-0.89 2.23, -4.45 11.15, -5.34 13.38 M0 0 C-0.89 2.23, -4.45 11.15, -5.34 13.38" stroke="#1e1e1e" stroke-width="4" fill="none"></path></g></g><mask></mask><g stroke-linecap="round"><g transform="translate(130.66385235961093 72.63037288283994) rotate(0 6.3123747378872395 39.45244244454511)"><path d="M0 0 C0.53 3.86, 1.93 14.38, 3.16 23.15 C4.38 31.91, 5.79 43.31, 7.36 52.6 C8.94 61.9, 11.75 74.52, 12.62 78.9 M0 0 C0.53 3.86, 1.93 14.38, 3.16 23.15 C4.38 31.91, 5.79 43.31, 7.36 52.6 C8.94 61.9, 11.75 74.52, 12.62 78.9" stroke="#1e1e1e" stroke-width="4" fill="none"></path></g></g><mask></mask><g stroke-linecap="round"><g transform="translate(27.561437331386742 193.6179031792115) rotate(0 2.6301628296363333 22.093351715705353)"><path d="M0 0 C-0.18 2.1, -1.93 7.36, -1.05 12.62 C-0.18 17.89, 4.03 26.3, 5.26 31.56 C6.49 36.82, 6.14 42.08, 6.31 44.19 M0 0 C-0.18 2.1, -1.93 7.36, -1.05 12.62 C-0.18 17.89, 4.03 26.3, 5.26 31.56 C6.49 36.82, 6.14 42.08, 6.31 44.19" stroke="#1e1e1e" stroke-width="4" fill="none"></path></g></g><mask></mask><g stroke-linecap="round" transform="translate(57.77366431471614 37.24277802167785) rotate(6.709820230883681 2.84865658630099 6.706207663776496)"><path d="M3 0 L5.7 7 L3 13.41 L0 7" stroke="none" stroke-width="0" fill="#1e1e1e" fill-rule="evenodd"></path><path d="M3 0 C3.9 2.35, 4.81 4.69, 5.7 7 M3 0 C3.88 2.28, 4.76 4.56, 5.7 7 M5.7 7 C5.03 8.58, 4.37 10.16, 3 13.41 M5.7 7 C4.95 8.78, 4.2 10.57, 3 13.41 M3 13.41 C2.17 11.63, 1.33 9.84, 0 7 M3 13.41 C1.94 11.14, 0.87 8.86, 0 7 M0 7 C0.72 5.31, 1.45 3.63, 3 0 M0 7 C0.81 5.11, 1.62 3.23, 3 0" stroke="#1e1e1e" stroke-width="1" fill="none"></path></g><g stroke-linecap="round" transform="translate(23.721668119255355 39.097496794773065) rotate(0.20760512006615064 2.84865658630099 6.706207663776496)"><path d="M3 0 L5.7 7 L3 13.41 L0 7" stroke="none" stroke-width="0" fill="#1e1e1e" fill-rule="evenodd"></path><path d="M3 0 C3.94 2.44, 4.88 4.88, 5.7 7 M3 0 C3.59 1.54, 4.19 3.09, 5.7 7 M5.7 7 C5.1 8.42, 4.5 9.84, 3 13.41 M5.7 7 C4.63 9.53, 3.57 12.05, 3 13.41 M3 13.41 C2.23 11.77, 1.46 10.12, 0 7 M3 13.41 C2.37 12.06, 1.73 10.7, 0 7 M0 7 C0.77 5.19, 1.55 3.39, 3 0 M0 7 C0.97 4.73, 1.95 2.46, 3 0" stroke="#1e1e1e" stroke-width="1" fill="none"></path></g></svg>